# Blender 5.1.1
# www.blender.org
mtllib patrolHat.mtl
o ICO球
v 0.276388 0.793395 0.850649
v -0.723607 0.793395 0.525725
v -0.723607 0.793395 -0.525725
v 0.276388 0.793395 -0.850649
v 0.990167 0.458552 0.000000
v 0.000000 1.087520 0.000000
v 1.328087 0.346175 0.309013
v 1.328087 0.346175 -0.309013
v 0.000000 0.346175 1.000000
v 0.803071 0.346175 0.809017
v -0.951058 0.346175 0.309013
v -0.587786 0.346175 0.809017
v -0.587786 0.346175 -0.809017
v -0.951058 0.346175 -0.309013
v 0.803071 0.346175 -0.809017
v 0.000000 0.346175 -1.000000
v -0.262869 0.871913 0.809012
v -0.850648 0.871911 0.000000
v -0.262869 0.871913 -0.809012
v 0.688189 0.687207 -0.499997
v -0.425323 0.976290 0.260543
v -0.425323 0.976290 -0.357480
v 0.162456 0.976290 -0.548463
v 0.162456 0.976290 0.451527
v 0.616807 0.876047 0.000000
v 0.688189 0.687207 0.499997
v 1.008138 0.435330 0.404505
v 1.008138 0.435330 -0.404505
vn 0.4458 0.8551 0.2646
vn -0.3195 0.9090 0.2676
vn -0.4106 0.8821 -0.2310
vn 0.0882 0.8666 -0.4912
vn 0.7377 0.6597 -0.1438
vn 0.3228 0.9416 -0.0953
vn 0.4842 0.8391 -0.2478
vn 0.4794 0.8191 -0.3150
vn -0.0710 0.9733 -0.2184
vn -0.0820 0.9641 -0.2524
vn -0.3517 0.8763 -0.3291
vn -0.2530 0.9675 -0.0000
vn -0.2383 0.9712 -0.0000
vn -0.3585 0.9067 0.2221
vn -0.0870 0.9596 0.2677
vn -0.0668 0.9764 0.2056
vn 0.1031 0.9151 0.3899
vn 0.3221 0.9396 0.1156
vn 0.7377 0.6597 0.1438
vn 0.2800 0.9591 -0.0426
vn 0.3498 0.8618 -0.3673
vn 0.5855 0.6437 -0.4927
vn -0.0247 0.3304 -0.9435
vn -0.3035 0.1876 -0.9342
vn -0.5346 0.3304 -0.7779
vn -0.9050 0.3304 -0.2680
vn -0.9822 0.1876 -0.0000
vn -0.9050 0.3304 0.2680
vn -0.5346 0.3304 0.7779
vn -0.3035 0.1876 0.9342
vn -0.0247 0.3304 0.9435
vn 0.5855 0.6437 0.4927
vn 0.6303 0.6271 0.4577
vn 0.2800 0.9591 0.0426
vn 0.2276 0.1790 -0.9572
vn -0.8026 0.1256 -0.5831
vn -0.0000 -1.0000 -0.0000
vn -0.8026 0.1256 0.5831
vn 0.2276 0.1790 0.9572
vn 0.3156 0.9489 -0.0000
vn 0.4468 0.8561 0.2596
vn 0.6217 0.7831 -0.0173
vn 0.6303 0.6271 -0.4577
vn 0.3498 0.8618 0.3673
vn 0.6217 0.7831 0.0173
vt 0.314946 0.818137
vt 0.314946 0.727241
vt 0.393666 0.772689
vt 0.314946 0.999931
vt 0.314946 0.909034
vt 0.393666 0.954482
vt 0.314946 0.272758
vt 0.314946 0.181862
vt 0.393666 0.227310
vt 0.314946 0.454551
vt 0.314946 0.363655
vt 0.393666 0.409103
vt 0.314946 0.636344
vt 0.314946 0.545448
vt 0.393666 0.590896
vt 0.393666 0.499999
vt 0.472386 0.545448
vt 0.393666 0.318206
vt 0.472386 0.363655
vt 0.393666 0.136413
vt 0.472386 0.181862
vt 0.314946 0.090965
vt 0.393666 0.863585
vt 0.472386 0.909034
vt 0.393666 0.681792
vt 0.472386 0.727241
vt 0.275587 0.568172
vt 0.236227 0.590896
vt 0.236227 0.499999
vt 0.236227 0.409103
vt 0.236227 0.318206
vt 0.236227 0.227310
vt 0.236227 0.136413
vt 0.236227 0.954482
vt 0.236227 0.863585
vt 0.236227 0.772689
vt 0.275587 0.704517
vt 0.236227 0.681792
vt 0.236227 0.045517
s 0
usemtl マテリアル
f 1/1/1 26/2/1 24/3/1
f 2/4/2 17/5/2 21/6/2
f 3/7/3 18/8/3 22/9/3
f 4/10/4 19/11/4 23/12/4
f 5/13/5 20/14/5 25/15/5
f 25/15/6 23/16/6 6/17/6
f 25/15/7 20/14/7 23/16/7
f 20/14/8 4/10/8 23/16/8
f 23/12/9 22/18/9 6/19/9
f 23/12/10 19/11/10 22/18/10
f 19/11/11 3/7/11 22/18/11
f 22/9/12 21/20/12 6/21/12
f 22/9/13 18/8/13 21/20/13
f 18/8/14 2/22/14 21/20/14
f 21/6/15 24/23/15 6/24/15
f 21/6/16 17/5/16 24/23/16
f 17/5/17 1/1/17 24/23/17
f 24/3/18 25/25/18 6/26/18
f 26/2/19 5/13/19 25/25/19
f 28/27/20 5/13/20 8/28/20
f 15/29/21 28/27/21 8/28/21
f 15/29/22 4/10/22 20/14/22
f 16/30/23 19/11/23 4/10/23
f 16/30/24 13/31/24 19/11/24
f 13/31/25 3/7/25 19/11/25
f 14/32/26 18/8/26 3/7/26
f 14/32/27 11/33/27 18/8/27
f 11/33/28 2/22/28 18/8/28
f 12/34/29 17/5/29 2/4/29
f 12/34/30 9/35/30 17/5/30
f 9/35/31 1/1/31 17/5/31
f 10/36/32 26/2/32 1/1/32
f 10/36/33 27/37/33 26/2/33
f 5/13/34 27/37/34 7/38/34
f 15/29/35 16/30/35 4/10/35
f 13/31/36 14/32/36 3/7/36
f 9/35/37 13/31/37 15/29/37
f 11/33/38 12/39/38 2/22/38
f 9/35/39 10/36/39 1/1/39
f 7/38/40 8/28/40 5/13/40
f 24/3/41 26/2/41 25/25/41
f 28/27/42 20/14/42 5/13/42
f 15/29/43 20/14/43 28/27/43
f 10/36/44 7/38/44 27/37/44
f 5/13/45 26/2/45 27/37/45
f 15/29/37 8/28/37 7/38/37
f 7/38/37 10/36/37 9/35/37
f 9/35/37 12/39/37 11/33/37
f 11/33/37 14/32/37 13/31/37
f 13/31/37 16/30/37 15/29/37
f 15/29/37 7/38/37 9/35/37
f 9/35/37 11/33/37 13/31/37
