# Blender 4.4.0
# www.blender.org
mtllib backBlack.mtl
o グリッド
v 0.339107 2.000000 3.000000
v 0.339107 1.600000 3.000000
v 0.339107 1.200000 3.000000
v 0.339107 0.800000 3.000000
v 0.339107 0.400000 3.000000
v 0.339107 0.000000 3.000000
v 0.339107 -0.400000 3.000000
v 0.339107 -0.800000 3.000000
v 0.339107 -1.200000 3.000000
v 0.339107 -1.600000 3.000000
v 0.339107 -2.000000 3.000000
v 0.000000 2.000000 2.400000
v 0.000000 1.600000 2.400000
v 0.000000 1.200000 2.400000
v 0.000000 0.800000 2.400000
v 0.000000 0.400000 2.400000
v 0.000000 0.000000 2.400000
v -0.000000 -0.400000 2.400000
v -0.000000 -0.800000 2.400000
v -0.000000 -1.200000 2.400000
v -0.000000 -1.600000 2.400000
v -0.000000 -2.000000 2.400000
v 0.000000 2.000000 1.800000
v 0.000000 1.600000 1.800000
v 0.000000 1.200000 1.800000
v 0.000000 0.800000 1.800000
v 0.000000 0.400000 1.800000
v 0.000000 0.000000 1.800000
v -0.000000 -0.400000 1.800000
v -0.000000 -0.800000 1.800000
v -0.000000 -1.200000 1.800000
v -0.000000 -1.600000 1.800000
v -0.000000 -2.000000 1.800000
v -0.296756 2.000000 1.200000
v -0.296756 1.600000 1.200000
v -0.296756 1.200000 1.200000
v -0.296756 0.800000 1.200000
v -0.296756 0.400000 1.200000
v -0.296756 0.000000 1.200000
v -0.296756 -0.400000 1.200000
v -0.296756 -0.800000 1.200000
v -0.296756 -1.200000 1.200000
v -0.296756 -1.600000 1.200000
v -0.296756 -2.000000 1.200000
v -0.615797 2.000000 0.600000
v -0.615797 1.600000 0.600000
v -0.615797 1.200000 0.600000
v -0.615797 0.800000 0.600000
v -0.615797 0.400000 0.600000
v -0.615797 0.000000 0.600000
v -0.615797 -0.400000 0.600000
v -0.615797 -0.800000 0.600000
v -0.615797 -1.200000 0.600000
v -0.615797 -1.600000 0.600000
v -0.615797 -2.000000 0.600000
v -0.999524 2.000000 0.000000
v -0.999524 1.600000 0.000000
v -0.999524 1.200000 0.000000
v -0.999524 0.800000 0.000000
v -0.999524 0.400000 0.000000
v -0.987661 -0.000000 0.000000
v -0.999524 -0.400000 0.000000
v -0.999524 -0.800000 0.000000
v -0.999524 -1.200000 0.000000
v -0.999524 -1.600000 0.000000
v -0.999524 -2.000000 0.000000
v -0.615797 2.000000 -0.600000
v -0.615797 1.600000 -0.600000
v -0.615797 1.200000 -0.600000
v -0.615797 0.800000 -0.600000
v -0.615797 0.400000 -0.600000
v -0.615797 0.000000 -0.600000
v -0.615797 -0.400000 -0.600000
v -0.615797 -0.800000 -0.600000
v -0.615797 -1.200000 -0.600000
v -0.615797 -1.600000 -0.600000
v -0.615797 -2.000000 -0.600000
v -0.296756 2.000000 -1.200000
v -0.296756 1.600000 -1.200000
v -0.296756 1.200000 -1.200000
v -0.296756 0.800000 -1.200000
v -0.296756 0.400000 -1.200000
v -0.296756 0.000000 -1.200000
v -0.296756 -0.400000 -1.200000
v -0.296756 -0.800000 -1.200000
v -0.296756 -1.200000 -1.200000
v -0.296756 -1.600000 -1.200000
v -0.296756 -2.000000 -1.200000
v 0.000000 2.000000 -1.800000
v 0.000000 1.600000 -1.800000
v 0.000000 1.200000 -1.800000
v 0.000000 0.800000 -1.800000
v 0.000000 0.400000 -1.800000
v 0.000000 0.000000 -1.800000
v -0.000000 -0.400000 -1.800000
v -0.000000 -0.800000 -1.800000
v -0.000000 -1.200000 -1.800000
v -0.000000 -1.600000 -1.800000
v -0.000000 -2.000000 -1.800000
v 0.000000 2.000000 -2.400000
v 0.000000 1.600000 -2.400000
v 0.000000 1.200000 -2.400000
v 0.000000 0.800000 -2.400000
v 0.000000 0.400000 -2.400000
v 0.000000 0.000000 -2.400000
v -0.000000 -0.400000 -2.400000
v -0.000000 -0.800000 -2.400000
v -0.000000 -1.200000 -2.400000
v -0.000000 -1.600000 -2.400000
v -0.000000 -2.000000 -2.400000
v 0.339107 2.000000 -3.000000
v 0.339107 1.600000 -3.000000
v 0.339107 1.200000 -3.000000
v 0.339107 0.800000 -3.000000
v 0.339107 0.400000 -3.000000
v 0.339107 0.000000 -3.000000
v 0.339107 -0.400000 -3.000000
v 0.339107 -0.800000 -3.000000
v 0.339107 -1.200000 -3.000000
v 0.339107 -1.600000 -3.000000
v 0.339107 -2.000000 -3.000000
vn 0.8706 -0.0000 -0.4920
vn 1.0000 -0.0000 -0.0000
vn 0.8964 -0.0000 -0.4433
vn 0.8829 -0.0000 -0.4695
vn 0.8424 -0.0000 -0.5388
vn 0.8422 0.0250 -0.5386
vn 0.8500 -0.0000 -0.5268
vn 0.8424 -0.0000 0.5388
vn 0.8422 0.0250 0.5386
vn 0.8500 -0.0000 0.5268
vn 0.8829 -0.0000 0.4695
vn 0.8964 -0.0000 0.4433
vn 0.8706 -0.0000 0.4920
vn 0.8422 -0.0250 -0.5386
vn 0.8422 -0.0250 0.5386
vt 0.100000 0.000000
vt 0.000000 0.100000
vt 0.000000 0.000000
vt 0.200000 0.000000
vt 0.100000 0.100000
vt 0.300000 0.000000
vt 0.200000 0.100000
vt 0.400000 0.000000
vt 0.300000 0.100000
vt 0.500000 0.000000
vt 0.400000 0.100000
vt 0.600000 0.000000
vt 0.500000 0.100000
vt 0.700000 0.000000
vt 0.600000 0.100000
vt 0.800000 0.000000
vt 0.700000 0.100000
vt 0.900000 0.000000
vt 0.800000 0.100000
vt 1.000000 0.000000
vt 0.900000 0.100000
vt 0.000000 0.200000
vt 0.200000 0.100000
vt 0.100000 0.200000
vt 0.200000 0.200000
vt 0.300000 0.200000
vt 0.400000 0.200000
vt 0.500000 0.200000
vt 0.600000 0.200000
vt 0.700000 0.200000
vt 0.800000 0.200000
vt 1.000000 0.100000
vt 0.900000 0.200000
vt 0.100000 0.200000
vt 0.000000 0.300000
vt 0.000000 0.200000
vt 0.200000 0.200000
vt 0.100000 0.300000
vt 0.300000 0.200000
vt 0.200000 0.300000
vt 0.400000 0.200000
vt 0.300000 0.300000
vt 0.500000 0.200000
vt 0.400000 0.300000
vt 0.600000 0.200000
vt 0.500000 0.300000
vt 0.700000 0.200000
vt 0.600000 0.300000
vt 0.800000 0.200000
vt 0.700000 0.300000
vt 0.900000 0.200000
vt 0.800000 0.300000
vt 1.000000 0.200000
vt 0.900000 0.300000
vt 0.000000 0.400000
vt 0.200000 0.300000
vt 0.100000 0.400000
vt 0.200000 0.400000
vt 0.300000 0.400000
vt 0.400000 0.400000
vt 0.500000 0.400000
vt 0.600000 0.400000
vt 0.700000 0.400000
vt 0.800000 0.400000
vt 1.000000 0.300000
vt 0.900000 0.400000
vt 0.000000 0.500000
vt 0.200000 0.400000
vt 0.100000 0.500000
vt 0.200000 0.500000
vt 0.300000 0.500000
vt 0.500000 0.500000
vt 0.400000 0.500000
vt 0.600000 0.500000
vt 0.700000 0.500000
vt 0.900000 0.500000
vt 0.800000 0.500000
vt 1.000000 0.400000
vt 0.000000 0.600000
vt 0.200000 0.500000
vt 0.100000 0.600000
vt 0.200000 0.600000
vt 0.300000 0.600000
vt 0.400000 0.600000
vt 0.600000 0.600000
vt 0.500000 0.600000
vt 0.700000 0.600000
vt 0.800000 0.600000
vt 1.000000 0.500000
vt 0.900000 0.600000
vt 0.000000 0.700000
vt 0.200000 0.600000
vt 0.100000 0.700000
vt 0.200000 0.700000
vt 0.300000 0.700000
vt 0.400000 0.700000
vt 0.500000 0.700000
vt 0.600000 0.700000
vt 0.700000 0.700000
vt 0.800000 0.700000
vt 1.000000 0.600000
vt 0.900000 0.700000
vt 0.000000 0.800000
vt 0.200000 0.700000
vt 0.100000 0.800000
vt 0.200000 0.800000
vt 0.300000 0.800000
vt 0.400000 0.800000
vt 0.500000 0.800000
vt 0.600000 0.800000
vt 0.700000 0.800000
vt 0.800000 0.800000
vt 1.000000 0.700000
vt 0.900000 0.800000
vt 0.000000 0.900000
vt 0.200000 0.800000
vt 0.100000 0.900000
vt 0.200000 0.900000
vt 0.300000 0.900000
vt 0.400000 0.900000
vt 0.500000 0.900000
vt 0.600000 0.900000
vt 0.700000 0.900000
vt 0.800000 0.900000
vt 1.000000 0.800000
vt 0.900000 0.900000
vt 0.000000 1.000000
vt 0.200000 0.900000
vt 0.100000 1.000000
vt 0.200000 1.000000
vt 0.300000 1.000000
vt 0.400000 1.000000
vt 0.500000 1.000000
vt 0.600000 1.000000
vt 0.700000 1.000000
vt 0.800000 1.000000
vt 1.000000 0.900000
vt 0.900000 1.000000
vt 0.200000 0.200000
vt 1.000000 0.200000
vt 0.200000 1.000000
vt 1.000000 1.000000
s 0
usemtl マテリアル
f 2/1/1 12/2/1 1/3/1
f 3/4/1 13/5/1 2/1/1
f 4/6/1 14/7/1 3/4/1
f 5/8/1 15/9/1 4/6/1
f 6/10/1 16/11/1 5/8/1
f 7/12/1 17/13/1 6/10/1
f 8/14/1 18/15/1 7/12/1
f 9/16/1 19/17/1 8/14/1
f 10/18/1 20/19/1 9/16/1
f 11/20/1 21/21/1 10/18/1
f 13/5/2 23/22/2 12/2/2
f 14/23/2 24/24/2 13/5/2
f 15/9/2 25/25/2 14/23/2
f 16/11/2 26/26/2 15/9/2
f 17/13/2 27/27/2 16/11/2
f 18/15/2 28/28/2 17/13/2
f 19/17/2 29/29/2 18/15/2
f 20/19/2 30/30/2 19/17/2
f 21/21/2 31/31/2 20/19/2
f 22/32/2 32/33/2 21/21/2
f 24/34/3 34/35/3 23/36/3
f 25/37/3 35/38/3 24/34/3
f 26/39/3 36/40/3 25/37/3
f 27/41/3 37/42/3 26/39/3
f 28/43/3 38/44/3 27/41/3
f 29/45/3 39/46/3 28/43/3
f 30/47/3 40/48/3 29/45/3
f 31/49/3 41/50/3 30/47/3
f 32/51/3 42/52/3 31/49/3
f 33/53/3 43/54/3 32/51/3
f 35/38/4 45/55/4 34/35/4
f 36/56/4 46/57/4 35/38/4
f 37/42/4 47/58/4 36/56/4
f 38/44/4 48/59/4 37/42/4
f 39/46/4 49/60/4 38/44/4
f 40/48/4 50/61/4 39/46/4
f 41/50/4 51/62/4 40/48/4
f 42/52/4 52/63/4 41/50/4
f 43/54/4 53/64/4 42/52/4
f 44/65/4 54/66/4 43/54/4
f 46/57/5 56/67/5 45/55/5
f 47/68/5 57/69/5 46/57/5
f 48/59/5 58/70/5 47/68/5
f 49/60/5 59/71/5 48/59/5
f 49/60/6 61/72/6 60/73/6
f 51/62/7 61/72/7 50/61/7
f 52/63/5 62/74/5 51/62/5
f 53/64/5 63/75/5 52/63/5
f 53/64/5 65/76/5 64/77/5
f 55/78/5 65/76/5 54/66/5
f 57/69/8 67/79/8 56/67/8
f 58/80/8 68/81/8 57/69/8
f 59/71/8 69/82/8 58/80/8
f 60/73/8 70/83/8 59/71/8
f 61/72/9 71/84/9 60/73/9
f 61/72/10 73/85/10 72/86/10
f 63/75/8 73/85/8 62/74/8
f 64/77/8 74/87/8 63/75/8
f 65/76/8 75/88/8 64/77/8
f 66/89/8 76/90/8 65/76/8
f 68/81/11 78/91/11 67/79/11
f 69/92/11 79/93/11 68/81/11
f 70/83/11 80/94/11 69/92/11
f 71/84/11 81/95/11 70/83/11
f 72/86/11 82/96/11 71/84/11
f 73/85/11 83/97/11 72/86/11
f 74/87/11 84/98/11 73/85/11
f 75/88/11 85/99/11 74/87/11
f 76/90/11 86/100/11 75/88/11
f 77/101/11 87/102/11 76/90/11
f 79/93/12 89/103/12 78/91/12
f 80/104/12 90/105/12 79/93/12
f 81/95/12 91/106/12 80/104/12
f 82/96/12 92/107/12 81/95/12
f 83/97/12 93/108/12 82/96/12
f 84/98/12 94/109/12 83/97/12
f 85/99/12 95/110/12 84/98/12
f 86/100/12 96/111/12 85/99/12
f 87/102/12 97/112/12 86/100/12
f 88/113/12 98/114/12 87/102/12
f 90/105/2 100/115/2 89/103/2
f 91/116/2 101/117/2 90/105/2
f 92/107/2 102/118/2 91/116/2
f 93/108/2 103/119/2 92/107/2
f 94/109/2 104/120/2 93/108/2
f 95/110/2 105/121/2 94/109/2
f 96/111/2 106/122/2 95/110/2
f 97/112/2 107/123/2 96/111/2
f 98/114/2 108/124/2 97/112/2
f 99/125/2 109/126/2 98/114/2
f 101/117/13 111/127/13 100/115/13
f 102/128/13 112/129/13 101/117/13
f 103/119/13 113/130/13 102/128/13
f 104/120/13 114/131/13 103/119/13
f 105/121/13 115/132/13 104/120/13
f 106/122/13 116/133/13 105/121/13
f 107/123/13 117/134/13 106/122/13
f 108/124/13 118/135/13 107/123/13
f 109/126/13 119/136/13 108/124/13
f 110/137/13 120/138/13 109/126/13
f 2/1/1 13/5/1 12/2/1
f 3/4/1 14/23/1 13/5/1
f 4/6/1 15/9/1 14/7/1
f 5/8/1 16/11/1 15/9/1
f 6/10/1 17/13/1 16/11/1
f 7/12/1 18/15/1 17/13/1
f 8/14/1 19/17/1 18/15/1
f 9/16/1 20/19/1 19/17/1
f 10/18/1 21/21/1 20/19/1
f 11/20/1 22/32/1 21/21/1
f 13/5/2 24/24/2 23/22/2
f 14/23/2 25/139/2 24/24/2
f 15/9/2 26/26/2 25/25/2
f 16/11/2 27/27/2 26/26/2
f 17/13/2 28/28/2 27/27/2
f 18/15/2 29/29/2 28/28/2
f 19/17/2 30/30/2 29/29/2
f 20/19/2 31/31/2 30/30/2
f 21/21/2 32/33/2 31/31/2
f 22/32/2 33/140/2 32/33/2
f 24/34/3 35/38/3 34/35/3
f 25/37/3 36/56/3 35/38/3
f 26/39/3 37/42/3 36/40/3
f 27/41/3 38/44/3 37/42/3
f 28/43/3 39/46/3 38/44/3
f 29/45/3 40/48/3 39/46/3
f 30/47/3 41/50/3 40/48/3
f 31/49/3 42/52/3 41/50/3
f 32/51/3 43/54/3 42/52/3
f 33/53/3 44/65/3 43/54/3
f 35/38/4 46/57/4 45/55/4
f 36/56/4 47/68/4 46/57/4
f 37/42/4 48/59/4 47/58/4
f 38/44/4 49/60/4 48/59/4
f 39/46/4 50/61/4 49/60/4
f 40/48/4 51/62/4 50/61/4
f 41/50/4 52/63/4 51/62/4
f 42/52/4 53/64/4 52/63/4
f 43/54/4 54/66/4 53/64/4
f 44/65/4 55/78/4 54/66/4
f 46/57/5 57/69/5 56/67/5
f 47/68/5 58/80/5 57/69/5
f 48/59/5 59/71/5 58/70/5
f 49/60/5 60/73/5 59/71/5
f 49/60/7 50/61/7 61/72/7
f 51/62/14 62/74/14 61/72/14
f 52/63/5 63/75/5 62/74/5
f 53/64/5 64/77/5 63/75/5
f 53/64/5 54/66/5 65/76/5
f 55/78/5 66/89/5 65/76/5
f 57/69/8 68/81/8 67/79/8
f 58/80/8 69/92/8 68/81/8
f 59/71/8 70/83/8 69/82/8
f 60/73/8 71/84/8 70/83/8
f 61/72/10 72/86/10 71/84/10
f 61/72/15 62/74/15 73/85/15
f 63/75/8 74/87/8 73/85/8
f 64/77/8 75/88/8 74/87/8
f 65/76/8 76/90/8 75/88/8
f 66/89/8 77/101/8 76/90/8
f 68/81/11 79/93/11 78/91/11
f 69/92/11 80/104/11 79/93/11
f 70/83/11 81/95/11 80/94/11
f 71/84/11 82/96/11 81/95/11
f 72/86/11 83/97/11 82/96/11
f 73/85/11 84/98/11 83/97/11
f 74/87/11 85/99/11 84/98/11
f 75/88/11 86/100/11 85/99/11
f 76/90/11 87/102/11 86/100/11
f 77/101/11 88/113/11 87/102/11
f 79/93/12 90/105/12 89/103/12
f 80/104/12 91/116/12 90/105/12
f 81/95/12 92/107/12 91/106/12
f 82/96/12 93/108/12 92/107/12
f 83/97/12 94/109/12 93/108/12
f 84/98/12 95/110/12 94/109/12
f 85/99/12 96/111/12 95/110/12
f 86/100/12 97/112/12 96/111/12
f 87/102/12 98/114/12 97/112/12
f 88/113/12 99/125/12 98/114/12
f 90/105/2 101/117/2 100/115/2
f 91/116/2 102/128/2 101/117/2
f 92/107/2 103/119/2 102/118/2
f 93/108/2 104/120/2 103/119/2
f 94/109/2 105/121/2 104/120/2
f 95/110/2 106/122/2 105/121/2
f 96/111/2 107/123/2 106/122/2
f 97/112/2 108/124/2 107/123/2
f 98/114/2 109/126/2 108/124/2
f 99/125/2 110/137/2 109/126/2
f 101/117/13 112/129/13 111/127/13
f 102/128/13 113/141/13 112/129/13
f 103/119/13 114/131/13 113/130/13
f 104/120/13 115/132/13 114/131/13
f 105/121/13 116/133/13 115/132/13
f 106/122/13 117/134/13 116/133/13
f 107/123/13 118/135/13 117/134/13
f 108/124/13 119/136/13 118/135/13
f 109/126/13 120/138/13 119/136/13
f 110/137/13 121/142/13 120/138/13
