# Blender 4.4.0
# www.blender.org
mtllib toggleblock_off_off.mtl
o Cube
v 0.500000 0.500000 -0.500000
v 0.500000 -0.500000 -0.500000
v 0.500000 0.500000 0.500000
v 0.500000 -0.500000 0.500000
v -0.500000 0.500000 -0.500000
v -0.500000 -0.500000 -0.500000
v -0.500000 0.500000 0.500000
v -0.500000 -0.500000 0.500000
v 0.418387 -0.418387 0.500000
v -0.418387 0.418387 0.500000
v 0.418387 0.418387 0.500000
v -0.418387 -0.418387 0.500000
v -0.418387 -0.418387 -0.500000
v 0.418387 0.418387 -0.500000
v -0.418387 0.418387 -0.500000
v 0.418387 -0.418387 -0.500000
v -0.500000 -0.418387 0.418387
v -0.500000 0.418387 -0.418387
v -0.500000 0.418387 0.418387
v -0.500000 -0.418387 -0.418387
v 0.500000 -0.418387 -0.418387
v 0.500000 0.418387 0.418387
v 0.500000 0.418387 -0.418387
v 0.500000 -0.418387 0.418387
v -0.418387 -0.418387 0.418387
v -0.418387 -0.418387 -0.418387
v -0.418387 -0.418387 0.175048
v -0.418387 0.418387 -0.175048
v -0.418387 0.418387 0.418387
v -0.418387 0.418387 -0.418387
v 0.418387 -0.418387 0.418387
v 0.418387 -0.418387 -0.418387
v 0.418387 -0.418387 -0.175048
v 0.418387 0.418387 0.175048
v 0.418387 0.418387 0.418387
v 0.418387 0.418387 -0.418387
v -0.418387 0.500000 0.418387
v 0.418387 0.500000 -0.418387
v -0.418387 0.500000 -0.418387
v 0.418387 0.500000 0.418387
v -0.418387 -0.500000 -0.418387
v 0.418387 -0.500000 -0.418387
v 0.418387 -0.500000 0.418387
v -0.418387 -0.500000 0.418387
vn -0.0000 1.0000 -0.0000
vn -0.0000 -0.0000 1.0000
vn -1.0000 -0.0000 -0.0000
vn -0.0000 -1.0000 -0.0000
vn 1.0000 -0.0000 -0.0000
vn -0.0000 -0.0000 -1.0000
vt 0.749957 0.749957
vt 0.520400 0.729557
vt 0.729557 0.729557
vt 0.500000 0.500000
vt 0.729557 0.520400
vt 0.520400 0.520400
vt 0.479600 0.770356
vt 0.500000 0.749957
vt 0.500000 0.999913
vt 0.250043 0.999913
vt 0.270443 0.770356
vt 0.270443 0.979514
vt 0.479600 0.229644
vt 0.500000 0.250043
vt 0.270443 0.229644
vt 0.270443 0.020486
vt 0.250043 0.000087
vt 0.479600 0.020486
vt 0.000087 0.500000
vt 0.250043 0.500000
vt 0.020486 0.520400
vt 0.000087 0.749957
vt 0.229644 0.729557
vt 0.250043 0.749957
vt 0.479600 0.520400
vt 0.270443 0.520400
vt 0.270443 0.729557
vt 0.479600 0.479600
vt 0.270443 0.479600
vt 0.270443 0.270443
vt 0.250043 0.250043
vt 0.479600 0.270443
vt 0.000000 0.000000
vt 0.749957 0.500000
vt 0.479600 0.979514
vt 0.500000 0.000087
vt 0.020486 0.729557
vt 0.229644 0.520400
vt 0.479600 0.729557
s 1
usemtl Material.001
f 7/1/1 40/2/1 37/3/1
f 1/4/1 39/5/1 38/6/1
f 11/7/2 3/8/2 7/9/2
f 8/10/2 9/11/2 12/12/2
f 18/13/3 5/14/3 20/15/3
f 17/16/3 8/17/3 19/18/3
f 6/19/4 2/20/4 41/21/4
f 8/22/4 43/23/4 4/24/4
f 1/4/5 3/8/5 23/25/5
f 4/24/5 21/26/5 24/27/5
f 14/28/6 1/4/6 16/29/6
f 13/30/6 6/31/6 15/32/6
f 13/33/5 30/33/5 26/33/5
f 12/33/5 29/33/5 10/33/5
f 9/33/3 35/33/3 31/33/3
f 16/33/3 36/33/3 14/33/3
f 12/33/1 31/33/1 25/33/1
f 26/33/1 16/33/1 13/33/1
f 14/33/4 30/33/4 15/33/4
f 29/33/4 11/33/4 10/33/4
f 20/33/2 30/33/2 18/33/2
f 21/33/2 36/33/2 32/33/2
f 22/33/6 31/33/6 35/33/6
f 17/33/6 29/33/6 25/33/6
f 24/33/1 32/33/1 33/33/1
f 20/33/1 25/33/1 27/33/1
f 22/33/4 34/33/4 36/33/4
f 18/33/4 28/33/4 29/33/4
f 38/33/2 30/33/2 36/33/2
f 41/33/2 32/33/2 26/33/2
f 44/33/6 31/33/6 43/33/6
f 40/33/6 29/33/6 37/33/6
f 26/33/5 27/33/5 44/33/5
f 29/33/5 28/33/5 39/33/5
f 33/33/3 42/33/3 31/33/3
f 34/33/3 40/33/3 36/33/3
f 39/5/1 5/34/1 7/1/1
f 7/1/1 3/8/1 40/2/1
f 37/3/1 39/5/1 7/1/1
f 40/2/1 3/8/1 1/4/1
f 1/4/1 5/34/1 39/5/1
f 38/6/1 40/2/1 1/4/1
f 11/7/2 9/11/2 4/24/2
f 7/9/2 8/10/2 12/12/2
f 7/9/2 12/12/2 10/35/2
f 11/7/2 4/24/2 3/8/2
f 7/9/2 10/35/2 11/7/2
f 8/10/2 4/24/2 9/11/2
f 18/13/3 19/18/3 7/36/3
f 5/14/3 6/31/3 20/15/3
f 18/13/3 7/36/3 5/14/3
f 17/16/3 20/15/3 6/31/3
f 8/17/3 7/36/3 19/18/3
f 17/16/3 6/31/3 8/17/3
f 41/21/4 44/37/4 8/22/4
f 2/20/4 4/24/4 43/23/4
f 2/20/4 43/23/4 42/38/4
f 41/21/4 8/22/4 6/19/4
f 2/20/4 42/38/4 41/21/4
f 8/22/4 44/37/4 43/23/4
f 23/25/5 21/26/5 2/20/5
f 3/8/5 4/24/5 24/27/5
f 3/8/5 24/27/5 22/39/5
f 23/25/5 2/20/5 1/4/5
f 3/8/5 22/39/5 23/25/5
f 4/24/5 2/20/5 21/26/5
f 14/28/6 15/32/6 5/14/6
f 1/4/6 2/20/6 16/29/6
f 14/28/6 5/14/6 1/4/6
f 13/30/6 16/29/6 2/20/6
f 6/31/6 5/14/6 15/32/6
f 13/30/6 2/20/6 6/31/6
f 13/33/5 15/33/5 30/33/5
f 12/33/5 25/33/5 29/33/5
f 9/33/3 11/33/3 35/33/3
f 16/33/3 32/33/3 36/33/3
f 12/33/1 9/33/1 31/33/1
f 26/33/1 32/33/1 16/33/1
f 14/33/4 36/33/4 30/33/4
f 29/33/4 35/33/4 11/33/4
f 20/33/2 26/33/2 30/33/2
f 21/33/2 23/33/2 36/33/2
f 22/33/6 24/33/6 31/33/6
f 17/33/6 19/33/6 29/33/6
f 33/33/1 31/33/1 24/33/1
f 24/33/1 21/33/1 32/33/1
f 27/33/1 26/33/1 20/33/1
f 20/33/1 17/33/1 25/33/1
f 36/33/4 23/33/4 22/33/4
f 22/33/4 35/33/4 34/33/4
f 29/33/4 19/33/4 18/33/4
f 18/33/4 30/33/4 28/33/4
f 38/33/2 39/33/2 30/33/2
f 41/33/2 42/33/2 32/33/2
f 44/33/6 25/33/6 31/33/6
f 40/33/6 35/33/6 29/33/6
f 44/33/5 41/33/5 26/33/5
f 27/33/5 25/33/5 44/33/5
f 39/33/5 37/33/5 29/33/5
f 28/33/5 30/33/5 39/33/5
f 33/33/3 32/33/3 42/33/3
f 42/33/3 43/33/3 31/33/3
f 34/33/3 35/33/3 40/33/3
f 40/33/3 38/33/3 36/33/3
