# Blender 5.1.1
# www.blender.org
mtllib jellyfish.mtl
o 球
v 0.000000 0.710093 0.000000
v 0.000000 0.541563 -0.555570
v 0.000000 0.346444 -0.831470
v 0.000000 0.195090 -0.980785
v 0.000000 0.000000 -1.000000
v -0.005634 -0.195090 -0.901911
v 0.000000 -0.001313 -0.831470
v 0.000000 -0.005598 0.000000
v 0.038060 0.690878 -0.191342
v 0.074658 0.633972 -0.375330
v 0.108386 0.541563 -0.544895
v 0.137950 0.497981 -0.693520
v 0.162212 0.346444 -0.815493
v 0.180240 0.265624 -0.906127
v 0.191342 0.195090 -0.961940
v 0.195090 0.000000 -0.980785
v 0.101200 -0.195090 -0.883066
v 0.180240 -0.001224 -0.906127
v 0.162212 -0.001313 -0.815493
v 0.137950 0.000386 -0.693520
v 0.108386 -0.000084 -0.544895
v 0.074658 0.000637 -0.375330
v 0.038060 0.000032 -0.191342
v 0.074658 0.690878 -0.180240
v 0.146447 0.633972 -0.353553
v 0.212608 0.541563 -0.513280
v 0.270598 0.497981 -0.653281
v 0.318190 0.346444 -0.768178
v 0.353553 0.265624 -0.853553
v 0.375330 0.195090 -0.906127
v 0.382683 0.000000 -0.923879
v 0.285189 -0.195090 -0.827253
v 0.353553 -0.001224 -0.853553
v 0.318190 -0.001313 -0.768178
v 0.270598 0.000386 -0.653281
v 0.212608 -0.000084 -0.513280
v 0.146447 0.000637 -0.353553
v 0.074658 0.000032 -0.180240
v 0.108386 0.690878 -0.162212
v 0.212608 0.633972 -0.318190
v 0.308658 0.541563 -0.461940
v 0.392847 0.497981 -0.587938
v 0.461940 0.346444 -0.691342
v 0.513280 0.265624 -0.768178
v 0.544895 0.195090 -0.815493
v 0.555570 0.000000 -0.831469
v 0.454753 -0.195090 -0.736619
v 0.513280 -0.001224 -0.768178
v 0.461940 -0.001313 -0.691342
v 0.392847 0.000386 -0.587938
v 0.308658 -0.000084 -0.461940
v 0.212608 0.000637 -0.318190
v 0.108386 0.000032 -0.162212
v 0.137950 0.690878 -0.137950
v 0.270598 0.633972 -0.270598
v 0.392847 0.541563 -0.392847
v 0.500000 0.497981 -0.500000
v 0.587938 0.346444 -0.587938
v 0.653281 0.265624 -0.653281
v 0.693520 0.195090 -0.693520
v 0.707107 0.000000 -0.707107
v 0.603378 -0.195090 -0.614646
v 0.653281 -0.001224 -0.653281
v 0.587938 -0.001313 -0.587938
v 0.500000 0.000386 -0.500000
v 0.392847 -0.000084 -0.392847
v 0.270598 0.000637 -0.270598
v 0.137950 0.000032 -0.137950
v 0.162212 0.690878 -0.108386
v 0.318190 0.633972 -0.212608
v 0.461940 0.541563 -0.308658
v 0.587938 0.497981 -0.392847
v 0.691342 0.346444 -0.461940
v 0.768178 0.265624 -0.513280
v 0.815493 0.195090 -0.544895
v 0.831470 0.000000 -0.555570
v 0.725351 -0.195090 -0.466021
v 0.768178 -0.001224 -0.513280
v 0.691342 -0.001313 -0.461940
v 0.587938 0.000386 -0.392847
v 0.461940 -0.000084 -0.308658
v 0.318190 0.000637 -0.212608
v 0.162212 0.000032 -0.108386
v 0.180240 0.690878 -0.074658
v 0.353553 0.633972 -0.146447
v 0.513280 0.541563 -0.212607
v 0.653281 0.497981 -0.270598
v 0.768178 0.346444 -0.318190
v 0.853553 0.265624 -0.353553
v 0.906127 0.195090 -0.375330
v 0.923879 0.000000 -0.382683
v 0.815986 -0.195090 -0.296456
v 0.853553 -0.001224 -0.353553
v 0.768178 -0.001313 -0.318190
v 0.653281 0.000386 -0.270598
v 0.513280 -0.000084 -0.212607
v 0.353553 0.000637 -0.146447
v 0.180240 0.000032 -0.074658
v 0.191342 0.690878 -0.038060
v 0.375330 0.633972 -0.074658
v 0.544895 0.541563 -0.108386
v 0.693520 0.497981 -0.137950
v 0.815493 0.346444 -0.162212
v 0.906127 0.265624 -0.180240
v 0.961940 0.195090 -0.191342
v 0.980785 0.000000 -0.195090
v 0.871798 -0.195090 -0.112468
v 0.906127 -0.001224 -0.180240
v 0.815493 -0.001313 -0.162212
v 0.693520 0.000386 -0.137950
v 0.544895 -0.000084 -0.108386
v 0.375330 0.000637 -0.074658
v 0.191342 0.000032 -0.038060
v 0.195090 0.690878 0.000000
v 0.382683 0.633972 0.000000
v 0.555570 0.541563 0.000000
v 0.707107 0.497981 -0.000000
v 0.831469 0.346444 0.000000
v 0.923879 0.265624 -0.000000
v 0.980785 0.195090 0.000000
v 1.000000 0.000000 0.000000
v 0.890643 -0.195090 0.000000
v 0.923879 -0.001224 -0.000000
v 0.831469 -0.001313 0.000000
v 0.707107 0.000386 -0.000000
v 0.555570 -0.000084 0.000000
v 0.382683 0.000637 0.000000
v 0.195090 0.000032 0.000000
v 0.191342 0.690878 0.038060
v 0.375330 0.633972 0.074658
v 0.544895 0.541563 0.108386
v 0.693520 0.497981 0.137950
v 0.815493 0.346444 0.162212
v 0.906127 0.265624 0.180240
v 0.961940 0.195090 0.191342
v 0.980785 0.000000 0.195090
v 0.871798 -0.195090 0.112468
v 0.906127 -0.001224 0.180240
v 0.815493 -0.001313 0.162212
v 0.693520 0.000386 0.137950
v 0.544895 -0.000084 0.108386
v 0.375330 0.000637 0.074658
v 0.191342 0.000032 0.038060
v 0.180240 0.690878 0.074658
v 0.353553 0.633972 0.146447
v 0.513280 0.541563 0.212608
v 0.653281 0.497981 0.270598
v 0.768178 0.346444 0.318190
v 0.853553 0.265624 0.353553
v 0.906127 0.195090 0.375330
v 0.923879 0.000000 0.382683
v 0.815986 -0.195090 0.296456
v 0.853553 -0.001224 0.353553
v 0.768178 -0.001313 0.318190
v 0.653281 0.000386 0.270598
v 0.513280 -0.000084 0.212608
v 0.353553 0.000637 0.146447
v 0.180240 0.000032 0.074658
v 0.162212 0.690878 0.108386
v 0.318190 0.633972 0.212608
v 0.461940 0.541563 0.308658
v 0.587938 0.497981 0.392847
v 0.691341 0.346444 0.461940
v 0.768178 0.265624 0.513280
v 0.815493 0.195090 0.544895
v 0.831469 0.000000 0.555570
v 0.725351 -0.195090 0.466021
v 0.768178 -0.001224 0.513280
v 0.691341 -0.001313 0.461940
v 0.587938 0.000386 0.392847
v 0.461940 -0.000084 0.308658
v 0.318190 0.000637 0.212608
v 0.162212 0.000032 0.108386
v 0.137950 0.690878 0.137950
v 0.270598 0.633972 0.270598
v 0.392847 0.541563 0.392847
v 0.500000 0.497981 0.500000
v 0.587938 0.346444 0.587938
v 0.653281 0.265624 0.653281
v 0.693520 0.195090 0.693520
v 0.707106 0.000000 0.707107
v 0.603378 -0.195090 0.614646
v 0.653281 -0.001224 0.653281
v 0.587938 -0.001313 0.587938
v 0.500000 0.000386 0.500000
v 0.392847 -0.000084 0.392847
v 0.270598 0.000637 0.270598
v 0.137950 0.000032 0.137950
v 0.108386 0.690878 0.162212
v 0.212607 0.633972 0.318190
v 0.308658 0.541563 0.461940
v 0.392847 0.497981 0.587938
v 0.461940 0.346444 0.691342
v 0.513280 0.265624 0.768178
v 0.544895 0.195090 0.815493
v 0.555570 0.000000 0.831469
v 0.454753 -0.195090 0.736619
v 0.513280 -0.001224 0.768178
v 0.461940 -0.001313 0.691342
v 0.392847 0.000386 0.587938
v 0.308658 -0.000084 0.461940
v 0.212607 0.000637 0.318190
v 0.108386 0.000032 0.162212
v 0.074658 0.690878 0.180240
v 0.146447 0.633972 0.353553
v 0.212607 0.541563 0.513280
v 0.270598 0.497981 0.653281
v 0.318189 0.346444 0.768178
v 0.353553 0.265624 0.853553
v 0.375330 0.195090 0.906127
v 0.382683 0.000000 0.923879
v 0.285188 -0.195090 0.827253
v 0.353553 -0.001224 0.853553
v 0.318189 -0.001313 0.768178
v 0.270598 0.000386 0.653281
v 0.212607 -0.000084 0.513280
v 0.146447 0.000637 0.353553
v 0.074658 0.000032 0.180240
v 0.038060 0.690878 0.191342
v 0.074658 0.633972 0.375330
v 0.108386 0.541563 0.544895
v 0.137950 0.497981 0.693520
v 0.162212 0.346444 0.815493
v 0.180240 0.265624 0.906127
v 0.191342 0.195090 0.961939
v 0.195090 0.000000 0.980785
v 0.101200 -0.195090 0.883065
v 0.180240 -0.001224 0.906127
v 0.162212 -0.001313 0.815493
v 0.137950 0.000386 0.693520
v 0.108386 -0.000084 0.544895
v 0.074658 0.000637 0.375330
v 0.038060 0.000032 0.191342
v -0.000000 0.690878 0.195090
v -0.000000 0.633972 0.382683
v -0.000000 0.541563 0.555570
v -0.000000 0.497981 0.707107
v -0.000000 0.346444 0.831469
v 0.000000 0.265624 0.923879
v -0.000000 0.195090 0.980785
v -0.000000 0.000000 0.999999
v -0.005634 -0.195090 0.901911
v 0.000000 -0.001224 0.923879
v -0.000000 -0.001313 0.831469
v -0.000000 0.000386 0.707107
v -0.000000 -0.000084 0.555570
v -0.000000 0.000637 0.382683
v -0.000000 0.000032 0.195090
v -0.038060 0.690878 0.191342
v -0.074658 0.633972 0.375330
v -0.108386 0.541563 0.544895
v -0.137950 0.497981 0.693520
v -0.162212 0.346444 0.815493
v -0.180240 0.265624 0.906127
v -0.191342 0.195090 0.961939
v -0.195091 0.000000 0.980785
v -0.106834 -0.195090 0.883065
v -0.180240 -0.001224 0.906127
v -0.162212 -0.001313 0.815493
v -0.137950 0.000386 0.693520
v -0.108386 -0.000084 0.544895
v -0.074658 0.000637 0.375330
v -0.038060 0.000032 0.191342
v -0.074658 0.690878 0.180240
v -0.146447 0.633972 0.353553
v -0.212608 0.541563 0.513280
v -0.270598 0.497981 0.653281
v -0.318190 0.346444 0.768177
v -0.353553 0.265624 0.853553
v -0.375330 0.195090 0.906127
v -0.382683 0.000000 0.923879
v -0.290822 -0.195090 0.827253
v -0.353553 -0.001224 0.853553
v -0.318190 -0.001313 0.768177
v -0.270598 0.000386 0.653281
v -0.212608 -0.000084 0.513280
v -0.146447 0.000637 0.353553
v -0.074658 0.000032 0.180240
v -0.108386 0.690878 0.162212
v -0.212608 0.633972 0.318190
v -0.308658 0.541563 0.461939
v -0.392847 0.497981 0.587938
v -0.461940 0.346444 0.691341
v -0.513280 0.265624 0.768178
v -0.544895 0.195090 0.815493
v -0.555570 0.000000 0.831469
v -0.460387 -0.195090 0.736619
v -0.513280 -0.001224 0.768178
v -0.461940 -0.001313 0.691341
v -0.392847 0.000386 0.587938
v -0.308658 -0.000084 0.461939
v -0.212608 0.000637 0.318190
v -0.108386 0.000032 0.162212
v -0.137950 0.690878 0.137950
v -0.270598 0.633972 0.270598
v -0.392847 0.541563 0.392847
v -0.500000 0.497981 0.500000
v -0.587938 0.346444 0.587937
v -0.653281 0.265624 0.653281
v -0.693520 0.195090 0.693520
v -0.707106 0.000000 0.707106
v -0.609012 -0.195090 0.614645
v -0.653281 -0.001224 0.653281
v -0.587938 -0.001313 0.587937
v -0.500000 0.000386 0.500000
v -0.392847 -0.000084 0.392847
v -0.270598 0.000637 0.270598
v -0.137950 0.000032 0.137950
v -0.162212 0.690878 0.108386
v -0.318190 0.633972 0.212607
v -0.461940 0.541563 0.308658
v -0.587938 0.497981 0.392847
v -0.691341 0.346444 0.461939
v -0.768177 0.265624 0.513280
v -0.815493 0.195090 0.544895
v -0.831469 0.000000 0.555569
v -0.730985 -0.195090 0.466021
v -0.768177 -0.001224 0.513280
v -0.691341 -0.001313 0.461939
v -0.587938 0.000386 0.392847
v -0.461940 -0.000084 0.308658
v -0.318190 0.000637 0.212607
v -0.162212 0.000032 0.108386
v -0.180240 0.690878 0.074658
v -0.353553 0.633972 0.146447
v -0.513280 0.541563 0.212607
v -0.653281 0.497981 0.270598
v -0.768177 0.346444 0.318189
v -0.853553 0.265624 0.353553
v -0.906127 0.195090 0.375330
v -0.923879 0.000000 0.382683
v -0.821619 -0.195090 0.296456
v -0.853553 -0.001224 0.353553
v -0.768177 -0.001313 0.318189
v -0.653281 0.000386 0.270598
v -0.513280 -0.000084 0.212607
v -0.353553 0.000637 0.146447
v -0.180240 0.000032 0.074658
v -0.191342 0.690878 0.038060
v -0.375330 0.633972 0.074658
v -0.544895 0.541563 0.108386
v -0.693520 0.497981 0.137950
v -0.815493 0.346444 0.162211
v -0.906127 0.265624 0.180240
v -0.961939 0.195090 0.191341
v -0.980784 0.000000 0.195090
v -0.877432 -0.195090 0.112467
v -0.906127 -0.001224 0.180240
v -0.815493 -0.001313 0.162211
v -0.693520 0.000386 0.137950
v -0.544895 -0.000084 0.108386
v -0.375330 0.000637 0.074658
v -0.191342 0.000032 0.038060
v -0.195090 0.690878 -0.000000
v -0.382683 0.633972 -0.000000
v -0.555570 0.541563 -0.000000
v -0.707107 0.497981 -0.000000
v -0.831469 0.346444 -0.000000
v -0.923879 0.265624 -0.000000
v -0.980785 0.195090 -0.000000
v -0.999999 0.000000 -0.000000
v -0.896277 -0.195090 -0.000000
v -0.923879 -0.001224 -0.000000
v -0.831469 -0.001313 -0.000000
v -0.707107 0.000386 -0.000000
v -0.555570 -0.000084 -0.000000
v -0.382683 0.000637 -0.000000
v -0.195090 0.000032 -0.000000
v -0.191342 0.690878 -0.038060
v -0.375330 0.633972 -0.074658
v -0.544895 0.541563 -0.108386
v -0.693520 0.497981 -0.137950
v -0.815493 0.346444 -0.162212
v -0.906127 0.265624 -0.180240
v -0.961939 0.195090 -0.191342
v -0.980784 0.000000 -0.195091
v -0.877431 -0.195090 -0.112468
v -0.906127 -0.001224 -0.180240
v -0.815493 -0.001313 -0.162212
v -0.693520 0.000386 -0.137950
v -0.544895 -0.000084 -0.108386
v -0.375330 0.000637 -0.074658
v -0.191342 0.000032 -0.038060
v -0.180240 0.690878 -0.074658
v -0.353553 0.633972 -0.146447
v -0.513279 0.541563 -0.212607
v -0.653281 0.497981 -0.270598
v -0.768177 0.346444 -0.318190
v -0.853553 0.265624 -0.353553
v -0.906127 0.195090 -0.375330
v -0.923878 0.000000 -0.382683
v -0.821619 -0.195090 -0.296456
v -0.853553 -0.001224 -0.353553
v -0.768177 -0.001313 -0.318190
v -0.653281 0.000386 -0.270598
v -0.513279 -0.000084 -0.212607
v -0.353553 0.000637 -0.146447
v -0.180240 0.000032 -0.074658
v -0.162212 0.690878 -0.108386
v -0.318189 0.633972 -0.212607
v -0.461939 0.541563 -0.308658
v -0.587938 0.497981 -0.392847
v -0.691341 0.346444 -0.461940
v -0.768177 0.265624 -0.513280
v -0.815493 0.195090 -0.544895
v -0.831468 0.000000 -0.555570
v -0.730985 -0.195090 -0.466021
v -0.768177 -0.001224 -0.513280
v -0.691341 -0.001313 -0.461940
v -0.587938 0.000386 -0.392847
v -0.461939 -0.000084 -0.308658
v -0.318189 0.000637 -0.212607
v -0.162212 0.000032 -0.108386
v -0.137950 0.690878 -0.137950
v -0.270598 0.633972 -0.270598
v -0.392847 0.541563 -0.392847
v -0.500000 0.497981 -0.500000
v -0.587937 0.346444 -0.587938
v -0.653281 0.265624 -0.653281
v -0.693519 0.195090 -0.693520
v -0.707106 0.000000 -0.707106
v -0.609011 -0.195090 -0.614646
v -0.653281 -0.001224 -0.653281
v -0.587937 -0.001313 -0.587938
v -0.500000 0.000386 -0.500000
v -0.392847 -0.000084 -0.392847
v -0.270598 0.000637 -0.270598
v -0.137950 0.000032 -0.137950
v -0.108386 0.690878 -0.162212
v -0.212607 0.633972 -0.318190
v -0.308658 0.541563 -0.461939
v -0.392847 0.497981 -0.587938
v -0.461939 0.346444 -0.691341
v -0.513280 0.265624 -0.768177
v -0.544895 0.195090 -0.815493
v -0.555569 0.000000 -0.831469
v -0.460387 -0.195090 -0.736619
v -0.513280 -0.001224 -0.768177
v -0.461939 -0.001313 -0.691341
v -0.392847 0.000386 -0.587938
v -0.308658 -0.000084 -0.461939
v -0.212607 0.000637 -0.318190
v -0.108386 0.000032 -0.162212
v -0.074658 0.690878 -0.180240
v -0.146446 0.633972 -0.353553
v -0.212607 0.541563 -0.513279
v -0.270598 0.497981 -0.653281
v -0.318189 0.346444 -0.768177
v -0.353553 0.265624 -0.853553
v -0.375330 0.195090 -0.906127
v -0.382683 0.000000 -0.923879
v -0.290822 -0.195090 -0.827253
v -0.353553 -0.001224 -0.853553
v -0.318189 -0.001313 -0.768177
v -0.270598 0.000386 -0.653281
v -0.212607 -0.000084 -0.513279
v -0.146446 0.000637 -0.353553
v -0.074658 0.000032 -0.180240
v -0.038060 0.690878 -0.191342
v -0.074658 0.633972 -0.375330
v -0.108386 0.541563 -0.544895
v -0.137950 0.497981 -0.693520
v -0.162211 0.346444 -0.815493
v -0.180240 0.265624 -0.906127
v -0.191341 0.195090 -0.961939
v -0.195090 0.000000 -0.980784
v -0.106833 -0.195090 -0.883065
v -0.180240 -0.001224 -0.906127
v -0.162211 -0.001313 -0.815493
v -0.137950 0.000386 -0.693520
v -0.108386 -0.000084 -0.544895
v -0.074658 0.000637 -0.375330
v -0.038060 0.000032 -0.191342
v 0.000000 0.690878 -0.195090
v 0.000000 0.633972 -0.382683
v 0.000000 0.497981 -0.707107
v 0.000000 0.265624 -0.923879
v 0.000000 -0.001224 -0.923879
v 0.000000 0.000386 -0.707107
v 0.000000 -0.000084 -0.555570
v 0.000000 0.000637 -0.382683
v 0.000000 0.000032 -0.195090
vn 0.0097 0.9951 -0.0980
vn 0.0028 -0.9996 -0.0288
vn 0.1554 -0.4473 -0.8808
vn 0.0286 0.9565 -0.2902
vn -0.0968 0.1564 0.9829
vn 0.0464 0.8810 -0.4709
vn 0.0001 -1.0000 -0.0010
vn 0.0272 0.9607 -0.2763
vn -0.0013 -0.9999 0.0137
vn 0.0759 0.6326 -0.7708
vn 0.0003 -1.0000 -0.0031
vn 0.0647 0.7512 -0.6569
vn -0.0004 -1.0000 0.0042
vn 0.0764 0.6261 -0.7760
vn 0.0003 -1.0000 -0.0032
vn 0.0975 0.0975 -0.9904
vn 0.2264 0.6261 -0.7462
vn 0.0009 -1.0000 -0.0031
vn 0.2889 0.0976 -0.9524
vn 0.0286 0.9951 -0.0942
vn 0.0084 -0.9996 -0.0277
vn 0.2468 -0.5263 -0.8137
vn 0.0846 0.9565 -0.2790
vn -0.2828 0.2262 0.9321
vn 0.1374 0.8810 -0.4528
vn 0.0003 -1.0000 -0.0009
vn 0.0806 0.9607 -0.2657
vn -0.0040 -0.9999 0.0131
vn 0.2248 0.6326 -0.7412
vn 0.0009 -1.0000 -0.0030
vn 0.1916 0.7512 -0.6317
vn -0.0012 -1.0000 0.0040
vn 0.0005 -1.0000 -0.0009
vn 0.1309 0.9607 -0.2448
vn -0.0065 -0.9999 0.0121
vn 0.3651 0.6326 -0.6831
vn 0.0015 -1.0000 -0.0027
vn 0.3112 0.7512 -0.5822
vn -0.0020 -1.0000 0.0037
vn 0.3676 0.6261 -0.6877
vn 0.0015 -1.0000 -0.0029
vn 0.4691 0.0975 -0.8777
vn 0.0464 0.9951 -0.0869
vn 0.0137 -0.9996 -0.0256
vn 0.3912 -0.5580 -0.7319
vn 0.1374 0.9565 -0.2571
vn -0.4532 0.2749 0.8480
vn 0.2231 0.8810 -0.4173
vn 0.0021 -1.0000 -0.0025
vn 0.6314 0.0975 -0.7693
vn 0.0625 0.9951 -0.0761
vn 0.0184 -0.9996 -0.0224
vn 0.5188 -0.5755 -0.6322
vn 0.1850 0.9565 -0.2254
vn -0.6047 0.3025 0.7368
vn 0.3002 0.8810 -0.3658
vn 0.0006 -1.0000 -0.0007
vn 0.1761 0.9607 -0.2146
vn -0.0087 -0.9999 0.0106
vn 0.4913 0.6326 -0.5987
vn 0.0020 -1.0000 -0.0024
vn 0.4188 0.7512 -0.5103
vn -0.0027 -1.0000 0.0032
vn 0.4947 0.6261 -0.6028
vn -0.0106 -0.9999 0.0087
vn 0.5987 0.6326 -0.4913
vn 0.0024 -1.0000 -0.0020
vn 0.5103 0.7512 -0.4188
vn -0.0032 -1.0000 0.0027
vn 0.6028 0.6261 -0.4947
vn 0.0025 -1.0000 -0.0021
vn 0.7693 0.0975 -0.6314
vn 0.0761 0.9951 -0.0625
vn 0.0224 -0.9996 -0.0184
vn 0.6298 -0.5798 -0.5169
vn 0.2254 0.9565 -0.1850
vn -0.7351 0.3094 0.6033
vn 0.3658 0.8810 -0.3002
vn 0.0007 -1.0000 -0.0006
vn 0.2146 0.9607 -0.1761
vn 0.0869 0.9951 -0.0464
vn 0.0256 -0.9996 -0.0137
vn 0.7238 -0.5713 -0.3869
vn 0.2571 0.9565 -0.1374
vn -0.8424 0.2959 0.4503
vn 0.4173 0.8810 -0.2230
vn 0.0009 -1.0000 -0.0005
vn 0.2448 0.9607 -0.1309
vn -0.0121 -0.9999 0.0065
vn 0.6831 0.6326 -0.3651
vn 0.0027 -1.0000 -0.0015
vn 0.5822 0.7512 -0.3112
vn -0.0037 -1.0000 0.0020
vn 0.6877 0.6261 -0.3676
vn 0.0029 -1.0000 -0.0015
vn 0.8777 0.0975 -0.4691
vn 0.7412 0.6326 -0.2248
vn 0.0030 -1.0000 -0.0009
vn 0.6317 0.7512 -0.1916
vn -0.0040 -1.0000 0.0012
vn 0.7462 0.6261 -0.2264
vn 0.0031 -1.0000 -0.0009
vn 0.9524 0.0975 -0.2889
vn 0.0942 0.9951 -0.0286
vn 0.0277 -0.9996 -0.0084
vn 0.7996 -0.5494 -0.2425
vn 0.2790 0.9565 -0.0846
vn -0.9236 0.2615 0.2802
vn 0.4528 0.8810 -0.1374
vn 0.0009 -1.0000 -0.0003
vn 0.2657 0.9607 -0.0806
vn -0.0131 -0.9999 0.0040
vn 0.8631 -0.4838 -0.1446
vn 0.2902 0.9565 -0.0286
vn -0.9738 0.2060 0.0959
vn 0.4709 0.8810 -0.0464
vn 0.0010 -1.0000 -0.0001
vn 0.2763 0.9607 -0.0272
vn -0.0137 -0.9999 0.0013
vn 0.7708 0.6326 -0.0759
vn 0.0031 -1.0000 -0.0003
vn 0.6569 0.7512 -0.0647
vn -0.0042 -1.0000 0.0004
vn 0.7760 0.6261 -0.0764
vn 0.0032 -1.0000 -0.0003
vn 0.9904 0.0975 -0.0975
vn 0.0980 0.9951 -0.0097
vn 0.0288 -0.9996 -0.0028
vn 0.0031 -1.0000 0.0003
vn 0.6569 0.7512 0.0647
vn -0.0042 -1.0000 -0.0004
vn 0.7760 0.6261 0.0764
vn 0.0032 -1.0000 0.0003
vn 0.9904 0.0975 0.0976
vn 0.0980 0.9951 0.0097
vn 0.0288 -0.9996 0.0028
vn 0.8631 -0.4838 0.1446
vn 0.2902 0.9565 0.0286
vn -0.9738 0.2060 -0.0959
vn 0.4709 0.8810 0.0464
vn 0.0010 -1.0000 0.0001
vn 0.2763 0.9607 0.0272
vn -0.0137 -0.9999 -0.0013
vn 0.7708 0.6326 0.0759
vn 0.2790 0.9565 0.0846
vn -0.9236 0.2615 -0.2802
vn 0.4528 0.8810 0.1374
vn 0.0009 -1.0000 0.0003
vn 0.2657 0.9607 0.0806
vn -0.0131 -0.9999 -0.0040
vn 0.7412 0.6326 0.2248
vn 0.0030 -1.0000 0.0009
vn 0.6317 0.7512 0.1916
vn -0.0040 -1.0000 -0.0012
vn 0.7462 0.6261 0.2264
vn 0.0031 -1.0000 0.0009
vn 0.9524 0.0975 0.2889
vn 0.0942 0.9951 0.0286
vn 0.0277 -0.9996 0.0084
vn 0.7996 -0.5494 0.2425
vn 0.5822 0.7512 0.3112
vn -0.0037 -1.0000 -0.0020
vn 0.6877 0.6261 0.3676
vn 0.0029 -1.0000 0.0015
vn 0.8777 0.0975 0.4691
vn 0.0869 0.9951 0.0464
vn 0.0256 -0.9996 0.0137
vn 0.7238 -0.5713 0.3869
vn 0.2571 0.9565 0.1374
vn -0.8424 0.2959 -0.4503
vn 0.4173 0.8810 0.2231
vn 0.0009 -1.0000 0.0005
vn 0.2448 0.9607 0.1309
vn -0.0121 -0.9999 -0.0065
vn 0.6831 0.6326 0.3651
vn 0.0027 -1.0000 0.0015
vn -0.7351 0.3094 -0.6033
vn 0.3658 0.8810 0.3002
vn 0.0007 -1.0000 0.0006
vn 0.2146 0.9607 0.1761
vn -0.0106 -0.9999 -0.0087
vn 0.5987 0.6326 0.4913
vn 0.0024 -1.0000 0.0020
vn 0.5103 0.7512 0.4188
vn -0.0032 -1.0000 -0.0027
vn 0.6028 0.6261 0.4947
vn 0.0025 -1.0000 0.0021
vn 0.7693 0.0975 0.6314
vn 0.0761 0.9951 0.0625
vn 0.0224 -0.9996 0.0184
vn 0.6298 -0.5798 0.5169
vn 0.2254 0.9565 0.1850
vn -0.0027 -1.0000 -0.0032
vn 0.4947 0.6261 0.6028
vn 0.0021 -1.0000 0.0025
vn 0.6314 0.0975 0.7693
vn 0.0625 0.9951 0.0761
vn 0.0184 -0.9996 0.0224
vn 0.5188 -0.5755 0.6322
vn 0.1850 0.9565 0.2254
vn -0.6047 0.3025 -0.7368
vn 0.3002 0.8810 0.3658
vn 0.0006 -1.0000 0.0007
vn 0.1761 0.9607 0.2146
vn -0.0087 -0.9999 -0.0106
vn 0.4913 0.6326 0.5987
vn 0.0020 -1.0000 0.0024
vn 0.4188 0.7512 0.5103
vn 0.0005 -1.0000 0.0009
vn 0.1309 0.9607 0.2448
vn -0.0065 -0.9999 -0.0121
vn 0.3651 0.6326 0.6831
vn 0.0015 -1.0000 0.0027
vn 0.3112 0.7512 0.5822
vn -0.0020 -1.0000 -0.0037
vn 0.3676 0.6261 0.6877
vn 0.0015 -1.0000 0.0029
vn 0.4691 0.0975 0.8777
vn 0.0464 0.9951 0.0869
vn 0.0137 -0.9996 0.0256
vn 0.3912 -0.5580 0.7319
vn 0.1374 0.9565 0.2571
vn -0.4532 0.2749 -0.8480
vn 0.2230 0.8810 0.4173
vn 0.0009 -1.0000 0.0031
vn 0.2889 0.0975 0.9524
vn 0.0286 0.9951 0.0942
vn 0.0084 -0.9996 0.0277
vn 0.2468 -0.5263 0.8137
vn 0.0846 0.9565 0.2790
vn -0.2828 0.2262 -0.9321
vn 0.1374 0.8810 0.4528
vn 0.0003 -1.0000 0.0009
vn 0.0806 0.9607 0.2657
vn -0.0040 -0.9999 -0.0131
vn 0.2248 0.6326 0.7412
vn 0.0009 -1.0000 0.0030
vn 0.1916 0.7512 0.6317
vn -0.0012 -1.0000 -0.0040
vn 0.2264 0.6261 0.7462
vn 0.0272 0.9607 0.2763
vn -0.0013 -0.9999 -0.0137
vn 0.0759 0.6326 0.7708
vn 0.0003 -1.0000 0.0031
vn 0.0647 0.7512 0.6569
vn -0.0004 -1.0000 -0.0042
vn 0.0764 0.6261 0.7760
vn 0.0003 -1.0000 0.0032
vn 0.0975 0.0975 0.9904
vn 0.0097 0.9951 0.0980
vn 0.0028 -0.9996 0.0288
vn 0.1554 -0.4473 0.8808
vn 0.0286 0.9565 0.2902
vn -0.0968 0.1564 -0.9829
vn 0.0464 0.8810 0.4709
vn 0.0001 -1.0000 0.0010
vn -0.0976 0.0975 0.9904
vn -0.0097 0.9951 0.0980
vn -0.0028 -0.9996 0.0288
vn -0.1645 -0.4393 0.8832
vn -0.0286 0.9565 0.2902
vn 0.0969 0.1537 -0.9834
vn -0.0464 0.8810 0.4709
vn -0.0001 -1.0000 0.0010
vn -0.0272 0.9607 0.2763
vn 0.0013 -0.9999 -0.0137
vn -0.0759 0.6326 0.7708
vn -0.0003 -1.0000 0.0031
vn -0.0647 0.7512 0.6569
vn 0.0004 -1.0000 -0.0042
vn -0.0764 0.6261 0.7760
vn -0.0003 -1.0000 0.0032
vn 0.0040 -0.9999 -0.0131
vn -0.2248 0.6326 0.7412
vn -0.0009 -1.0000 0.0030
vn -0.1916 0.7512 0.6317
vn 0.0012 -1.0000 -0.0040
vn -0.2264 0.6261 0.7462
vn -0.0009 -1.0000 0.0031
vn -0.2889 0.0975 0.9524
vn -0.0286 0.9951 0.0942
vn -0.0084 -0.9996 0.0277
vn -0.2477 -0.5212 0.8167
vn -0.0846 0.9565 0.2790
vn 0.2833 0.2184 -0.9338
vn -0.1374 0.8810 0.4528
vn -0.0003 -1.0000 0.0009
vn -0.0806 0.9607 0.2657
vn -0.0464 0.9951 0.0869
vn -0.0137 -0.9996 0.0256
vn -0.3937 -0.5501 0.7365
vn -0.1374 0.9565 0.2571
vn 0.4549 0.2626 -0.8510
vn -0.2230 0.8810 0.4173
vn -0.0005 -1.0000 0.0009
vn -0.1309 0.9607 0.2448
vn 0.0065 -0.9999 -0.0121
vn -0.3651 0.6326 0.6831
vn -0.0015 -1.0000 0.0027
vn -0.3112 0.7512 0.5822
vn 0.0020 -1.0000 -0.0037
vn -0.3676 0.6261 0.6877
vn -0.0015 -1.0000 0.0029
vn -0.4691 0.0975 0.8777
vn -0.4913 0.6326 0.5987
vn -0.0020 -1.0000 0.0024
vn -0.4188 0.7512 0.5103
vn 0.0027 -1.0000 -0.0032
vn -0.4947 0.6261 0.6028
vn -0.0021 -1.0000 0.0025
vn -0.6314 0.0975 0.7693
vn -0.0625 0.9951 0.0761
vn -0.0184 -0.9996 0.0224
vn -0.5233 -0.5653 0.6376
vn -0.1850 0.9565 0.2254
vn 0.6078 0.2864 -0.7406
vn -0.3002 0.8810 0.3658
vn -0.0006 -1.0000 0.0007
vn -0.1761 0.9607 0.2146
vn 0.0087 -0.9999 -0.0106
vn -0.6364 -0.5676 0.5223
vn -0.2254 0.9565 0.1850
vn 0.7398 0.2899 -0.6071
vn -0.3658 0.8810 0.3002
vn -0.0007 -1.0000 0.0006
vn -0.2146 0.9607 0.1761
vn 0.0106 -0.9999 -0.0087
vn -0.5987 0.6326 0.4913
vn -0.0024 -1.0000 0.0020
vn -0.5103 0.7512 0.4188
vn 0.0032 -1.0000 -0.0027
vn -0.6028 0.6261 0.4947
vn -0.0025 -1.0000 0.0021
vn -0.7693 0.0975 0.6314
vn -0.0761 0.9951 0.0625
vn -0.0224 -0.9996 0.0184
vn -0.0027 -1.0000 0.0015
vn -0.5822 0.7512 0.3112
vn 0.0037 -1.0000 -0.0020
vn -0.6877 0.6261 0.3676
vn -0.0029 -1.0000 0.0015
vn -0.8777 0.0975 0.4691
vn -0.0869 0.9951 0.0464
vn -0.0256 -0.9996 0.0137
vn -0.7325 -0.5570 0.3915
vn -0.2571 0.9565 0.1374
vn 0.8483 0.2733 -0.4535
vn -0.4173 0.8810 0.2230
vn -0.0009 -1.0000 0.0005
vn -0.2448 0.9607 0.1309
vn 0.0121 -0.9999 -0.0065
vn -0.6831 0.6326 0.3651
vn 0.9299 0.2362 -0.2821
vn -0.4528 0.8810 0.1374
vn -0.0009 -1.0000 0.0003
vn -0.2657 0.9607 0.0806
vn 0.0131 -0.9999 -0.0040
vn -0.7412 0.6326 0.2248
vn -0.0030 -1.0000 0.0009
vn -0.6317 0.7512 0.1916
vn 0.0040 -1.0000 -0.0012
vn -0.7462 0.6261 0.2264
vn -0.0031 -1.0000 0.0009
vn -0.9524 0.0975 0.2889
vn -0.0942 0.9951 0.0286
vn -0.0277 -0.9996 0.0084
vn -0.8097 -0.5330 0.2456
vn -0.2790 0.9565 0.0846
vn 0.0042 -1.0000 -0.0004
vn -0.7760 0.6261 0.0764
vn -0.0032 -1.0000 0.0003
vn -0.9904 0.0975 0.0975
vn -0.0980 0.9951 0.0097
vn -0.0288 -0.9996 0.0028
vn -0.8735 -0.4644 0.1464
vn -0.2902 0.9565 0.0286
vn 0.9792 0.1786 -0.0964
vn -0.4709 0.8810 0.0464
vn -0.0010 -1.0000 0.0001
vn -0.2763 0.9607 0.0272
vn 0.0137 -0.9999 -0.0013
vn -0.7708 0.6326 0.0759
vn -0.0031 -1.0000 0.0003
vn -0.6569 0.7512 0.0647
vn -0.4709 0.8810 -0.0464
vn -0.0010 -1.0000 -0.0001
vn -0.2763 0.9607 -0.0272
vn 0.0137 -0.9999 0.0013
vn -0.7708 0.6326 -0.0759
vn -0.0031 -1.0000 -0.0003
vn -0.6569 0.7512 -0.0647
vn 0.0042 -1.0000 0.0004
vn -0.7760 0.6261 -0.0764
vn -0.0032 -1.0000 -0.0003
vn -0.9904 0.0975 -0.0975
vn -0.0980 0.9951 -0.0097
vn -0.0288 -0.9996 -0.0028
vn -0.8735 -0.4644 -0.1464
vn -0.2902 0.9565 -0.0286
vn 0.9792 0.1786 0.0964
vn -0.7462 0.6261 -0.2264
vn -0.0031 -1.0000 -0.0009
vn -0.9524 0.0975 -0.2889
vn -0.0942 0.9951 -0.0286
vn -0.0277 -0.9996 -0.0084
vn -0.8097 -0.5330 -0.2456
vn -0.2790 0.9565 -0.0846
vn 0.9299 0.2362 0.2821
vn -0.4528 0.8810 -0.1374
vn -0.0009 -1.0000 -0.0003
vn -0.2657 0.9607 -0.0806
vn 0.0131 -0.9999 0.0040
vn -0.7412 0.6326 -0.2248
vn -0.0030 -1.0000 -0.0009
vn -0.6317 0.7512 -0.1916
vn 0.0040 -1.0000 0.0012
vn -0.0009 -1.0000 -0.0005
vn -0.2448 0.9607 -0.1309
vn 0.0121 -0.9999 0.0065
vn -0.6831 0.6326 -0.3651
vn -0.0027 -1.0000 -0.0015
vn -0.5822 0.7512 -0.3112
vn 0.0037 -1.0000 0.0020
vn -0.6877 0.6261 -0.3676
vn -0.0029 -1.0000 -0.0015
vn -0.8777 0.0975 -0.4691
vn -0.0869 0.9951 -0.0464
vn -0.0256 -0.9996 -0.0137
vn -0.7325 -0.5570 -0.3915
vn -0.2571 0.9565 -0.1374
vn 0.8483 0.2733 0.4535
vn -0.4173 0.8810 -0.2231
vn -0.0025 -1.0000 -0.0021
vn -0.7693 0.0975 -0.6314
vn -0.0761 0.9951 -0.0625
vn -0.0224 -0.9996 -0.0184
vn -0.6364 -0.5676 -0.5223
vn -0.2254 0.9565 -0.1850
vn 0.7398 0.2899 0.6071
vn -0.3658 0.8810 -0.3002
vn -0.0007 -1.0000 -0.0006
vn -0.2146 0.9607 -0.1761
vn 0.0106 -0.9999 0.0087
vn -0.5987 0.6326 -0.4913
vn -0.0024 -1.0000 -0.0020
vn -0.5103 0.7512 -0.4188
vn 0.0032 -1.0000 0.0027
vn -0.6028 0.6261 -0.4947
vn -0.1761 0.9607 -0.2146
vn 0.0087 -0.9999 0.0106
vn -0.4913 0.6326 -0.5987
vn -0.0020 -1.0000 -0.0024
vn -0.4188 0.7512 -0.5103
vn 0.0027 -1.0000 0.0032
vn -0.4947 0.6261 -0.6028
vn -0.0021 -1.0000 -0.0025
vn -0.6314 0.0975 -0.7693
vn -0.0625 0.9951 -0.0761
vn -0.0184 -0.9996 -0.0224
vn -0.5233 -0.5653 -0.6376
vn -0.1850 0.9565 -0.2254
vn 0.6078 0.2864 0.7406
vn -0.3002 0.8810 -0.3658
vn -0.0006 -1.0000 -0.0007
vn -0.4691 0.0975 -0.8777
vn -0.0464 0.9951 -0.0869
vn -0.0137 -0.9996 -0.0256
vn -0.3937 -0.5501 -0.7365
vn -0.1374 0.9565 -0.2571
vn 0.4549 0.2626 0.8510
vn -0.2231 0.8810 -0.4173
vn -0.0005 -1.0000 -0.0009
vn -0.1309 0.9607 -0.2448
vn 0.0065 -0.9999 0.0121
vn -0.3651 0.6326 -0.6831
vn -0.0015 -1.0000 -0.0027
vn -0.3112 0.7512 -0.5822
vn 0.0020 -1.0000 0.0037
vn -0.3676 0.6261 -0.6877
vn -0.0015 -1.0000 -0.0029
vn 0.0040 -0.9999 0.0131
vn -0.2248 0.6326 -0.7412
vn -0.0009 -1.0000 -0.0030
vn -0.1916 0.7512 -0.6317
vn 0.0012 -1.0000 0.0040
vn -0.2264 0.6261 -0.7462
vn -0.0009 -1.0000 -0.0031
vn -0.2889 0.0975 -0.9524
vn -0.0286 0.9951 -0.0942
vn -0.0084 -0.9996 -0.0277
vn -0.2477 -0.5212 -0.8167
vn -0.0846 0.9565 -0.2790
vn 0.2833 0.2184 0.9338
vn -0.1374 0.8810 -0.4528
vn -0.0003 -1.0000 -0.0009
vn -0.0806 0.9607 -0.2657
vn -0.0028 -0.9996 -0.0288
vn -0.1645 -0.4393 -0.8832
vn -0.0286 0.9565 -0.2902
vn 0.0969 0.1537 0.9834
vn -0.0464 0.8810 -0.4709
vn -0.0001 -1.0000 -0.0010
vn -0.0272 0.9607 -0.2763
vn 0.0013 -0.9999 0.0137
vn -0.0759 0.6326 -0.7708
vn -0.0003 -1.0000 -0.0031
vn -0.0647 0.7512 -0.6570
vn 0.0004 -1.0000 0.0042
vn -0.0764 0.6261 -0.7760
vn -0.0003 -1.0000 -0.0032
vn -0.0976 0.0975 -0.9904
vn -0.0097 0.9951 -0.0980
vn 0.0860 -0.4790 -0.8736
vn -0.1725 0.1159 0.9782
vn 0.0975 0.0976 -0.9904
vn 0.2230 0.8810 -0.4173
vn 0.8543 -0.5129 -0.0841
vn -0.9724 0.1667 0.1629
vn 0.8543 -0.5129 0.0841
vn -0.9724 0.1667 -0.1629
vn 0.4173 0.8810 0.2230
vn 0.0860 -0.4790 0.8736
vn -0.1725 0.1159 -0.9782
vn -0.0975 0.0975 0.9904
vn -0.0861 -0.4771 0.8746
vn 0.1821 0.1055 -0.9776
vn -0.2231 0.8810 0.4173
vn -0.9904 0.0975 0.0976
vn -0.8651 -0.4944 0.0852
vn 0.9767 0.1391 -0.1637
vn -0.9904 0.0975 -0.0976
vn -0.8651 -0.4944 -0.0852
vn 0.9767 0.1391 0.1637
vn 0.4548 0.2626 0.8510
vn -0.0861 -0.4771 -0.8746
vn 0.1821 0.1055 0.9776
vn -0.0647 0.7512 -0.6569
vt 0.314789 0.289713
vt 0.291203 0.291960
vt 0.313914 0.285149
vt 0.790520 0.209642
vt 0.822251 0.226502
vt 0.818353 0.232370
vt 0.528397 0.270352
vt 0.571000 0.210420
vt 0.580694 0.266015
vt 0.338652 0.287512
vt 0.336911 0.278335
vt 0.940934 0.289385
vt 0.953681 0.343094
vt 0.922636 0.317304
vt 0.363408 0.285200
vt 0.360775 0.271220
vt 0.909248 0.306435
vt 0.925831 0.281357
vt 0.389805 0.282748
vt 0.386075 0.263671
vt 0.891467 0.291972
vt 0.905566 0.270667
vt 0.418130 0.280272
vt 0.413703 0.255669
vt 0.869813 0.274341
vt 0.880901 0.257616
vt 0.449907 0.277382
vt 0.444028 0.246813
vt 0.845126 0.254217
vt 0.852768 0.242703
vt 0.486448 0.273951
vt 0.479071 0.236326
vt 0.520297 0.224592
vt 0.432421 0.217889
vt 0.464672 0.200781
vt 0.835382 0.264018
vt 0.813385 0.237364
vt 0.503314 0.181001
vt 0.312150 0.280847
vt 0.550688 0.157003
vt 0.333403 0.269661
vt 0.924464 0.372440
vt 0.899053 0.340983
vt 0.355451 0.257997
vt 0.888068 0.327808
vt 0.378692 0.245756
vt 0.873458 0.310122
vt 0.404187 0.232491
vt 0.855667 0.288585
vt 0.871313 0.359643
vt 0.863122 0.344588
vt 0.367969 0.229692
vt 0.852247 0.324391
vt 0.390399 0.211542
vt 0.839007 0.299789
vt 0.415305 0.191738
vt 0.823910 0.271731
vt 0.443455 0.168805
vt 0.807537 0.241294
vt 0.477984 0.141166
vt 0.309577 0.276971
vt 0.519785 0.108032
vt 0.328258 0.261827
vt 0.890068 0.395467
vt 0.347544 0.246143
vt 0.811152 0.277055
vt 0.801035 0.244006
vt 0.416766 0.141109
vt 0.444719 0.107454
vt 0.306298 0.273674
vt 0.479139 0.066316
vt 0.321638 0.255199
vt 0.851854 0.411312
vt 0.840467 0.372525
vt 0.337519 0.236034
vt 0.835379 0.356164
vt 0.354467 0.215822
vt 0.828660 0.334236
vt 0.372757 0.193706
vt 0.820480 0.307523
vt 0.393401 0.169331
vt 0.803606 0.339283
vt 0.338424 0.204826
vt 0.352015 0.179682
vt 0.800801 0.311489
vt 0.367514 0.151650
vt 0.797601 0.279787
vt 0.384889 0.119299
vt 0.794128 0.245398
vt 0.405531 0.080909
vt 0.302440 0.271080
vt 0.431047 0.033789
vt 0.313862 0.250000
vt 0.807707 0.379132
vt 0.325700 0.228066
vt 0.805913 0.362097
vt 0.298149 0.269288
vt 0.787082 0.245415
vt 0.361935 0.062615
vt 0.377626 0.011493
vt 0.305246 0.246353
vt 0.811298 0.419383
vt 0.774295 0.379216
vt 0.312553 0.222573
vt 0.775861 0.362162
vt 0.320461 0.197475
vt 0.778052 0.339341
vt 0.328919 0.169880
vt 0.780727 0.311536
vt 0.338626 0.139385
vt 0.783777 0.279820
vt 0.349291 0.104243
vt 0.301489 0.193505
vt 0.304309 0.164873
vt 0.752981 0.334409
vt 0.761032 0.307664
vt 0.307866 0.133042
vt 0.770212 0.277155
vt 0.311432 0.096499
vt 0.780168 0.244057
vt 0.315651 0.053255
vt 0.293589 0.268369
vt 0.320996 0.000146
vt 0.296071 0.244456
vt 0.769961 0.419383
vt 0.741516 0.372778
vt 0.298610 0.219740
vt 0.746379 0.356360
vt 0.268487 0.053150
vt 0.263344 0.000100
vt 0.286703 0.244450
vt 0.729429 0.411319
vt 0.710628 0.360069
vt 0.284381 0.219675
vt 0.718600 0.344918
vt 0.282076 0.193358
vt 0.729358 0.324680
vt 0.279223 0.164761
vt 0.742472 0.300023
vt 0.276479 0.132854
vt 0.757429 0.271894
vt 0.272818 0.096338
vt 0.773653 0.241376
vt 0.288938 0.268358
vt 0.708090 0.310530
vt 0.725762 0.288908
vt 0.245678 0.138811
vt 0.745919 0.264240
vt 0.234948 0.103737
vt 0.767785 0.237474
vt 0.222264 0.062265
vt 0.284377 0.269255
vt 0.206872 0.011301
vt 0.277525 0.246270
vt 0.656908 0.372551
vt 0.682817 0.341580
vt 0.270395 0.222393
vt 0.693591 0.328277
vt 0.262996 0.197025
vt 0.254609 0.169555
vt 0.268846 0.249783
vt 0.627701 0.343342
vt 0.659151 0.318023
vt 0.257215 0.227799
vt 0.672312 0.307079
vt 0.244995 0.204353
vt 0.689993 0.292503
vt 0.231417 0.179065
vt 0.711543 0.274746
vt 0.216653 0.150672
vt 0.736125 0.254487
vt 0.199280 0.118389
vt 0.762792 0.232504
vt 0.178750 0.080221
vt 0.280077 0.271026
vt 0.153727 0.033283
vt 0.190520 0.167970
vt 0.728422 0.243011
vt 0.167181 0.139717
vt 0.758865 0.226654
vt 0.139605 0.106310
vt 0.276207 0.273601
vt 0.105924 0.065181
vt 0.261059 0.254982
vt 0.604756 0.309000
vt 0.640537 0.290304
vt 0.245348 0.235666
vt 0.655579 0.282139
vt 0.228761 0.215055
vt 0.675763 0.271293
vt 0.210547 0.192922
vt 0.700361 0.258083
vt 0.588951 0.270844
vt 0.627690 0.259489
vt 0.235246 0.245716
vt 0.644035 0.254416
vt 0.214888 0.228723
vt 0.665945 0.247717
vt 0.192824 0.210584
vt 0.692646 0.239561
vt 0.168281 0.190031
vt 0.723107 0.230253
vt 0.139877 0.166891
vt 0.756155 0.220151
vt 0.106319 0.139524
vt 0.272915 0.276881
vt 0.065275 0.105771
vt 0.254446 0.261595
vt 0.720383 0.216704
vt 0.150767 0.216008
vt 0.118406 0.198871
vt 0.754766 0.213245
vt 0.080163 0.178588
vt 0.270326 0.280742
vt 0.033329 0.153502
vt 0.249188 0.269337
vt 0.621101 0.226762
vt 0.227325 0.257543
vt 0.638121 0.224975
vt 0.204224 0.244940
vt 0.660916 0.222679
vt 0.178793 0.231354
vt 0.688693 0.219889
vt 0.621024 0.193380
vt 0.638065 0.194948
vt 0.196682 0.262781
vt 0.660868 0.197143
vt 0.169164 0.254512
vt 0.688654 0.199826
vt 0.138670 0.244921
vt 0.720355 0.202885
vt 0.103595 0.234425
vt 0.754751 0.206200
vt 0.062139 0.222001
vt 0.268543 0.285032
vt 0.011320 0.206546
vt 0.245606 0.277983
vt 0.580895 0.230341
vt 0.221849 0.270664
vt 0.756110 0.199288
vt 0.096016 0.272174
vt 0.052945 0.268085
vt 0.267631 0.289585
vt 0.000100 0.262857
vt 0.243779 0.287154
vt 0.580894 0.189047
vt 0.627461 0.160626
vt 0.219036 0.284608
vt 0.643867 0.165488
vt 0.192799 0.281784
vt 0.665803 0.172090
vt 0.164229 0.279070
vt 0.692530 0.180142
vt 0.132456 0.275618
vt 0.723023 0.189326
vt 0.192712 0.301186
vt 0.675530 0.148482
vt 0.164180 0.304106
vt 0.700171 0.161593
vt 0.132354 0.306923
vt 0.728285 0.176549
vt 0.095956 0.310661
vt 0.758792 0.192774
vt 0.052930 0.315062
vt 0.267626 0.294227
vt 0.000100 0.320256
vt 0.243780 0.296497
vt 0.588950 0.148548
vt 0.640164 0.129759
vt 0.218997 0.298842
vt 0.655305 0.137728
vt 0.103410 0.348404
vt 0.062089 0.361119
vt 0.268527 0.298781
vt 0.762693 0.186909
vt 0.011312 0.376527
vt 0.245536 0.305683
vt 0.627690 0.076070
vt 0.658644 0.101965
vt 0.221741 0.312802
vt 0.671939 0.112735
vt 0.196418 0.320229
vt 0.689676 0.127227
vt 0.169016 0.328661
vt 0.711284 0.144893
vt 0.138365 0.337635
vt 0.735939 0.165045
vt 0.707695 0.109141
vt 0.203768 0.338175
vt 0.178550 0.351790
vt 0.725441 0.130682
vt 0.150251 0.366571
vt 0.745689 0.155256
vt 0.118085 0.383951
vt 0.767663 0.181918
vt 0.080058 0.404481
vt 0.270285 0.303079
vt 0.033290 0.429499
vt 0.249114 0.314325
vt 0.656884 0.046878
vt 0.682190 0.078312
vt 0.227145 0.325949
vt 0.693127 0.091468
vt 0.272850 0.306951
vt 0.773512 0.177992
vt 0.065176 0.477134
vt 0.254303 0.322088
vt 0.691212 0.023944
vt 0.709896 0.059709
vt 0.235015 0.337797
vt 0.718056 0.074745
vt 0.214479 0.354340
vt 0.728896 0.094919
vt 0.192410 0.372607
vt 0.742097 0.119507
vt 0.167550 0.392619
vt 0.757162 0.147557
vt 0.139408 0.415935
vt 0.106138 0.443481
vt 0.228133 0.368098
vt 0.210059 0.390312
vt 0.752462 0.085107
vt 0.760613 0.111796
vt 0.189592 0.414781
vt 0.769915 0.142244
vt 0.166552 0.443128
vt 0.780013 0.175283
vt 0.139313 0.476623
vt 0.276120 0.310249
vt 0.105729 0.517603
vt 0.260853 0.328736
vt 0.729351 0.008149
vt 0.740698 0.046870
vt 0.245045 0.347870
vt 0.745767 0.063207
vt 0.178300 0.502636
vt 0.153376 0.549358
vt 0.268618 0.333915
vt 0.773410 0.040287
vt 0.256835 0.355796
vt 0.775194 0.057298
vt 0.244202 0.378923
vt 0.777488 0.080081
vt 0.230816 0.404227
vt 0.780275 0.107845
vt 0.215523 0.432207
vt 0.783459 0.139522
vt 0.198467 0.464489
vt 0.786918 0.173894
vt 0.279980 0.312835
vt 0.803011 0.080035
vt 0.800329 0.107807
vt 0.244342 0.444233
vt 0.797273 0.139493
vt 0.233917 0.479205
vt 0.793961 0.173879
vt 0.221589 0.520530
vt 0.284269 0.314619
vt 0.206274 0.571187
vt 0.277221 0.337550
vt 0.769836 0.000100
vt 0.806775 0.040213
vt 0.269944 0.361258
vt 0.805206 0.057244
vt 0.262068 0.386402
vt 0.253878 0.413821
vt 0.811110 0.000105
vt 0.839509 0.046649
vt 0.283855 0.364063
vt 0.834649 0.063045
vt 0.281042 0.390252
vt 0.828051 0.084967
vt 0.278359 0.418731
vt 0.820004 0.111680
vt 0.274939 0.450404
vt 0.810826 0.142160
vt 0.271537 0.486717
vt 0.800871 0.175237
vt 0.267511 0.529627
vt 0.288823 0.315531
vt 0.262379 0.582263
vt 0.286382 0.339369
vt 0.823599 0.147419
vt 0.306136 0.450491
vt 0.309877 0.486749
vt 0.807383 0.177918
vt 0.314293 0.529590
vt 0.293464 0.315539
vt 0.319526 0.582176
vt 0.295710 0.339366
vt 0.851585 0.008162
vt 0.870356 0.059346
vt 0.298058 0.364101
vt 0.862392 0.074477
vt 0.300400 0.390328
vt 0.851646 0.094689
vt 0.303318 0.418773
vt 0.838544 0.119316
vt 0.304877 0.337614
vt 0.311988 0.361364
vt 0.898129 0.077814
vt 0.887369 0.091098
vt 0.319396 0.386630
vt 0.872888 0.108824
vt 0.327797 0.413953
vt 0.855237 0.130421
vt 0.336737 0.444499
vt 0.835099 0.155067
vt 0.347464 0.479311
vt 0.813247 0.181817
vt 0.360136 0.520437
vt 0.298019 0.314642
vt 0.375511 0.570947
vt 0.924005 0.046888
vt 0.365570 0.432669
vt 0.382857 0.464704
vt 0.818238 0.186785
vt 0.403277 0.502540
vt 0.302309 0.312875
vt 0.428177 0.549033
vt 0.313498 0.334043
vt 0.953166 0.076061
vt 0.921763 0.101340
vt 0.325111 0.355975
vt 0.908620 0.112269
vt 0.337302 0.379306
vt 0.890965 0.126827
vt 0.350860 0.404461
vt 0.869443 0.144566
vt 0.844887 0.164811
vt 0.940350 0.129017
vt 0.925333 0.137172
vt 0.353441 0.368634
vt 0.905181 0.148007
vt 0.371627 0.390665
vt 0.880617 0.161208
vt 0.391536 0.415464
vt 0.852587 0.176276
vt 0.414706 0.443505
vt 0.822165 0.192631
vt 0.442066 0.476610
vt 0.306172 0.310307
vt 0.475500 0.517309
vt 0.321243 0.328863
vt 0.976068 0.110353
vt 0.336948 0.348124
vt 0.824875 0.199130
vt 0.441809 0.416545
vt 0.475031 0.443670
vt 0.309461 0.307036
vt 0.515672 0.477036
vt 0.327878 0.322321
vt 0.991837 0.148440
vt 0.953183 0.159779
vt 0.347026 0.338116
vt 0.936868 0.164849
vt 0.367193 0.355029
vt 0.914996 0.171549
vt 0.389309 0.373099
vt 0.888332 0.179707
vt 0.413654 0.393552
vt 0.857904 0.189022
vt 0.378036 0.339011
vt 0.920036 0.196547
vt 0.403228 0.352436
vt 0.892295 0.199354
vt 0.431098 0.367774
vt 0.860633 0.202559
vt 0.463158 0.384866
vt 0.826267 0.206034
vt 0.500939 0.405014
vt 0.312051 0.303186
vt 0.547179 0.429819
vt 0.333112 0.314598
vt 0.959773 0.192443
vt 0.354954 0.326350
vt 0.942790 0.194238
vt 0.477990 0.349673
vt 0.518847 0.362138
vt 0.313839 0.298904
vt 0.826285 0.213076
vt 0.568884 0.377537
vt 0.336745 0.305995
vt 0.999875 0.188847
vt 0.959869 0.225761
vt 0.360424 0.313275
vt 0.942878 0.224212
vt 0.385569 0.321184
vt 0.920112 0.222045
vt 0.412842 0.329468
vt 0.892353 0.219396
vt 0.443235 0.339103
vt 0.860671 0.216370
vt 0.915227 0.247062
vt 0.389534 0.302196
vt 0.417722 0.305105
vt 0.888507 0.239066
vt 0.449663 0.308578
vt 0.858016 0.229924
vt 0.485818 0.312252
vt 0.824929 0.219988
vt 0.528127 0.316677
vt 0.314775 0.294356
vt 0.580104 0.322250
vt 0.338570 0.296841
vt 0.999900 0.230016
vt 0.953421 0.258460
vt 0.363226 0.299387
vt 0.937155 0.253607
vt 0.991980 0.270372
vt 0.976457 0.308554
vt 0.691257 0.395505
vt 0.604750 0.110400
vt 0.889705 0.023960
s 0
usemtl マテリアル
f 474/1/1 1/2/1 9/3/1
f 8/4/2 482/5/2 23/6/2
f 5/7/3 17/8/3 6/9/3
f 475/10/4 9/3/4 10/11/4
f 478/12/5 17/13/5 18/14/5
f 2/15/6 10/11/6 11/16/6
f 478/12/7 19/17/7 7/18/7
f 476/19/8 11/16/8 12/20/8
f 7/18/9 20/21/9 479/22/9
f 3/23/10 12/20/10 13/24/10
f 479/22/11 21/25/11 480/26/11
f 477/27/12 13/24/12 14/28/12
f 480/26/13 22/29/13 481/30/13
f 4/31/14 14/28/14 15/32/14
f 481/30/15 23/6/15 482/5/15
f 4/31/16 16/33/16 5/7/16
f 15/32/17 29/34/17 30/35/17
f 23/6/18 37/36/18 38/37/18
f 15/32/19 31/38/19 16/33/19
f 9/3/20 1/2/20 24/39/20
f 8/4/21 23/6/21 38/37/21
f 16/33/22 32/40/22 17/8/22
f 9/3/23 25/41/23 10/11/23
f 18/14/24 32/42/24 33/43/24
f 10/11/25 26/44/25 11/16/25
f 19/17/26 33/43/26 34/45/26
f 11/16/27 27/46/27 12/20/27
f 20/21/28 34/45/28 35/47/28
f 12/20/29 28/48/29 13/24/29
f 20/21/30 36/49/30 21/25/30
f 13/24/31 29/34/31 14/28/31
f 22/29/32 36/49/32 37/36/32
f 34/45/33 48/50/33 49/51/33
f 26/44/34 42/52/34 27/46/34
f 34/45/35 50/53/35 35/47/35
f 27/46/36 43/54/36 28/48/36
f 36/49/37 50/53/37 51/55/37
f 28/48/38 44/56/38 29/34/38
f 37/36/39 51/55/39 52/57/39
f 30/35/40 44/56/40 45/58/40
f 38/37/41 52/57/41 53/59/41
f 30/35/42 46/60/42 31/38/42
f 24/39/43 1/2/43 39/61/43
f 8/4/44 38/37/44 53/59/44
f 31/38/45 47/62/45 32/40/45
f 24/39/46 40/63/46 25/41/46
f 33/43/47 47/64/47 48/50/47
f 25/41/48 41/65/48 26/44/48
f 53/59/49 67/66/49 68/67/49
f 46/60/50 60/68/50 61/69/50
f 39/61/51 1/2/51 54/70/51
f 8/4/52 53/59/52 68/67/52
f 46/60/53 62/71/53 47/62/53
f 39/61/54 55/72/54 40/63/54
f 48/50/55 62/73/55 63/74/55
f 40/63/56 56/75/56 41/65/56
f 49/51/57 63/74/57 64/76/57
f 41/65/58 57/77/58 42/52/58
f 49/51/59 65/78/59 50/53/59
f 43/54/60 57/77/60 58/79/60
f 51/55/61 65/78/61 66/80/61
f 43/54/62 59/81/62 44/56/62
f 51/55/63 67/66/63 52/57/63
f 44/56/64 60/68/64 45/58/64
f 64/76/65 80/82/65 65/78/65
f 58/79/66 72/83/66 73/84/66
f 66/80/67 80/82/67 81/85/67
f 58/79/68 74/86/68 59/81/68
f 66/80/69 82/87/69 67/66/69
f 60/68/70 74/86/70 75/88/70
f 67/66/71 83/89/71 68/67/71
f 61/69/72 75/88/72 76/90/72
f 54/70/73 1/2/73 69/91/73
f 8/4/74 68/67/74 83/89/74
f 62/71/75 76/90/75 77/92/75
f 54/70/76 70/93/76 55/72/76
f 62/73/77 78/94/77 63/74/77
f 55/72/78 71/95/78 56/75/78
f 64/76/79 78/94/79 79/96/79
f 56/75/80 72/83/80 57/77/80
f 69/91/81 1/2/81 84/97/81
f 8/4/82 83/89/82 98/98/82
f 77/92/83 91/99/83 92/100/83
f 69/91/84 85/101/84 70/93/84
f 77/102/85 93/103/85 78/94/85
f 70/93/86 86/104/86 71/95/86
f 79/96/87 93/103/87 94/105/87
f 71/95/88 87/106/88 72/83/88
f 79/96/89 95/107/89 80/82/89
f 73/84/90 87/106/90 88/108/90
f 81/85/91 95/107/91 96/109/91
f 73/84/92 89/110/92 74/86/92
f 82/87/93 96/109/93 97/111/93
f 75/88/94 89/110/94 90/112/94
f 83/89/95 97/111/95 98/98/95
f 76/90/96 90/112/96 91/99/96
f 88/108/97 102/113/97 103/114/97
f 96/109/98 110/115/98 111/116/98
f 88/108/99 104/117/99 89/110/99
f 96/109/100 112/118/100 97/111/100
f 90/112/101 104/117/101 105/119/101
f 98/98/102 112/118/102 113/120/102
f 91/99/103 105/119/103 106/121/103
f 84/97/104 1/2/104 99/122/104
f 8/4/105 98/98/105 113/120/105
f 92/100/106 106/121/106 107/123/106
f 85/101/107 99/122/107 100/124/107
f 92/125/108 108/126/108 93/103/108
f 85/101/109 101/127/109 86/104/109
f 94/105/110 108/126/110 109/128/110
f 86/104/111 102/113/111 87/106/111
f 94/105/112 110/115/112 95/107/112
f 107/123/113 121/129/113 122/130/113
f 99/122/114 115/131/114 100/124/114
f 107/132/115 123/133/115 108/126/115
f 100/124/116 116/134/116 101/127/116
f 109/128/117 123/133/117 124/135/117
f 101/127/118 117/136/118 102/113/118
f 109/128/119 125/137/119 110/115/119
f 103/114/120 117/136/120 118/138/120
f 111/116/121 125/137/121 126/139/121
f 103/114/122 119/140/122 104/117/122
f 111/116/123 127/141/123 112/118/123
f 105/119/124 119/140/124 120/142/124
f 113/120/125 127/141/125 128/143/125
f 106/121/126 120/142/126 121/129/126
f 99/122/127 1/2/127 114/144/127
f 8/4/128 113/120/128 128/143/128
f 126/139/129 140/145/129 141/146/129
f 118/138/130 134/147/130 119/140/130
f 126/139/131 142/148/131 127/141/131
f 120/142/132 134/147/132 135/149/132
f 127/141/133 143/150/133 128/143/133
f 121/129/134 135/149/134 136/151/134
f 114/144/135 1/2/135 129/152/135
f 8/4/136 128/143/136 143/150/136
f 121/129/137 137/153/137 122/130/137
f 114/144/138 130/154/138 115/131/138
f 123/133/139 137/155/139 138/156/139
f 115/131/140 131/157/140 116/134/140
f 124/135/141 138/156/141 139/158/141
f 116/134/142 132/159/142 117/136/142
f 124/135/143 140/145/143 125/137/143
f 118/138/144 132/159/144 133/160/144
f 129/152/145 145/161/145 130/154/145
f 138/156/146 152/162/146 153/163/146
f 131/157/147 145/161/147 146/164/147
f 139/158/148 153/163/148 154/165/148
f 131/157/149 147/166/149 132/159/149
f 139/158/150 155/167/150 140/145/150
f 133/160/151 147/166/151 148/168/151
f 141/146/152 155/167/152 156/169/152
f 133/160/153 149/170/153 134/147/153
f 141/146/154 157/171/154 142/148/154
f 135/149/155 149/170/155 150/172/155
f 142/148/156 158/173/156 143/150/156
f 136/151/157 150/172/157 151/174/157
f 129/152/158 1/2/158 144/175/158
f 8/4/159 143/150/159 158/173/159
f 136/151/160 152/176/160 137/153/160
f 148/168/161 164/177/161 149/170/161
f 156/169/162 172/178/162 157/171/162
f 150/172/163 164/177/163 165/179/163
f 158/173/164 172/178/164 173/180/164
f 151/174/165 165/179/165 166/181/165
f 144/175/166 1/2/166 159/182/166
f 8/4/167 158/173/167 173/180/167
f 151/174/168 167/183/168 152/176/168
f 144/175/169 160/184/169 145/161/169
f 153/163/170 167/185/170 168/186/170
f 145/161/171 161/187/171 146/164/171
f 154/165/172 168/186/172 169/188/172
f 146/164/173 162/189/173 147/166/173
f 154/165/174 170/190/174 155/167/174
f 148/168/175 162/189/175 163/191/175
f 156/169/176 170/190/176 171/192/176
f 168/186/177 182/193/177 183/194/177
f 160/184/178 176/195/178 161/187/178
f 169/188/179 183/194/179 184/196/179
f 161/187/180 177/197/180 162/189/180
f 169/188/181 185/198/181 170/190/181
f 163/191/182 177/197/182 178/199/182
f 171/192/183 185/198/183 186/200/183
f 163/191/184 179/201/184 164/177/184
f 171/192/185 187/202/185 172/178/185
f 165/179/186 179/201/186 180/203/186
f 173/180/187 187/202/187 188/204/187
f 166/181/188 180/203/188 181/205/188
f 159/182/189 1/2/189 174/206/189
f 8/4/190 173/180/190 188/204/190
f 166/181/191 182/207/191 167/183/191
f 159/182/192 175/208/192 160/184/192
f 186/200/193 202/209/193 187/202/193
f 180/203/194 194/210/194 195/211/194
f 187/202/195 203/212/195 188/204/195
f 181/205/196 195/211/196 196/213/196
f 174/206/197 1/2/197 189/214/197
f 8/4/198 188/204/198 203/212/198
f 182/207/199 196/213/199 197/215/199
f 174/206/200 190/216/200 175/208/200
f 182/193/201 198/217/201 183/194/201
f 175/208/202 191/218/202 176/195/202
f 184/196/203 198/217/203 199/219/203
f 176/195/204 192/220/204 177/197/204
f 184/196/205 200/221/205 185/198/205
f 178/199/206 192/220/206 193/222/206
f 186/200/207 200/221/207 201/223/207
f 178/199/208 194/210/208 179/201/208
f 199/219/209 213/224/209 214/225/209
f 191/218/210 207/226/210 192/220/210
f 199/219/211 215/227/211 200/221/211
f 193/222/212 207/226/212 208/228/212
f 201/223/213 215/227/213 216/229/213
f 193/222/214 209/230/214 194/210/214
f 201/223/215 217/231/215 202/209/215
f 195/211/216 209/230/216 210/232/216
f 202/209/217 218/233/217 203/212/217
f 196/213/218 210/232/218 211/234/218
f 189/214/219 1/2/219 204/235/219
f 8/4/220 203/212/220 218/233/220
f 197/215/221 211/234/221 212/236/221
f 189/214/222 205/237/222 190/216/222
f 197/238/223 213/224/223 198/217/223
f 190/216/224 206/239/224 191/218/224
f 217/231/225 233/240/225 218/233/225
f 211/234/226 225/241/226 226/242/226
f 204/235/227 1/2/227 219/243/227
f 8/4/228 218/233/228 233/240/228
f 212/236/229 226/242/229 227/244/229
f 205/237/230 219/243/230 220/245/230
f 212/246/231 228/247/231 213/224/231
f 205/237/232 221/248/232 206/239/232
f 214/225/233 228/247/233 229/249/233
f 206/239/234 222/250/234 207/226/234
f 214/225/235 230/251/235 215/227/235
f 208/228/236 222/250/236 223/252/236
f 216/229/237 230/251/237 231/253/237
f 208/228/238 224/254/238 209/230/238
f 216/229/239 232/255/239 217/231/239
f 210/232/240 224/254/240 225/241/240
f 221/248/241 237/256/241 222/250/241
f 229/249/242 245/257/242 230/251/242
f 223/252/243 237/256/243 238/258/243
f 231/253/244 245/257/244 246/259/244
f 223/252/245 239/260/245 224/254/245
f 232/255/246 246/259/246 247/261/246
f 225/241/247 239/260/247 240/262/247
f 232/255/248 248/263/248 233/240/248
f 226/242/249 240/262/249 241/264/249
f 219/243/250 1/2/250 234/265/250
f 8/4/251 233/240/251 248/263/251
f 227/244/252 241/264/252 242/266/252
f 220/245/253 234/265/253 235/267/253
f 227/268/254 243/269/254 228/247/254
f 221/248/255 235/267/255 236/270/255
f 229/249/256 243/269/256 244/271/256
f 241/264/257 255/272/257 256/273/257
f 234/265/258 1/2/258 249/274/258
f 8/4/259 248/263/259 263/275/259
f 241/264/260 257/276/260 242/266/260
f 234/265/261 250/277/261 235/267/261
f 243/269/262 257/278/262 258/279/262
f 235/267/263 251/280/263 236/270/263
f 244/271/264 258/279/264 259/281/264
f 236/270/265 252/282/265 237/256/265
f 244/271/266 260/283/266 245/257/266
f 238/258/267 252/282/267 253/284/267
f 246/259/268 260/283/268 261/285/268
f 238/258/269 254/286/269 239/260/269
f 246/259/270 262/287/270 247/261/270
f 240/262/271 254/286/271 255/272/271
f 247/261/272 263/275/272 248/263/272
f 259/281/273 275/288/273 260/283/273
f 253/284/274 267/289/274 268/290/274
f 261/285/275 275/288/275 276/291/275
f 253/284/276 269/292/276 254/286/276
f 262/287/277 276/291/277 277/293/277
f 255/272/278 269/292/278 270/294/278
f 262/287/279 278/295/279 263/275/279
f 256/273/280 270/294/280 271/296/280
f 249/274/281 1/2/281 264/297/281
f 8/4/282 263/275/282 278/295/282
f 256/273/283 272/298/283 257/276/283
f 250/277/284 264/297/284 265/299/284
f 258/279/285 272/300/285 273/301/285
f 250/277/286 266/302/286 251/280/286
f 259/281/287 273/301/287 274/303/287
f 251/280/288 267/289/288 252/282/288
f 264/297/289 1/2/289 279/304/289
f 8/4/290 278/295/290 293/305/290
f 271/296/291 287/306/291 272/298/291
f 265/299/292 279/304/292 280/307/292
f 273/301/293 287/308/293 288/309/293
f 265/299/294 281/310/294 266/302/294
f 274/303/295 288/309/295 289/311/295
f 266/302/296 282/312/296 267/289/296
f 274/303/297 290/313/297 275/288/297
f 268/290/298 282/312/298 283/314/298
f 276/291/299 290/313/299 291/315/299
f 268/290/300 284/316/300 269/292/300
f 276/291/301 292/317/301 277/293/301
f 270/294/302 284/316/302 285/318/302
f 277/293/303 293/305/303 278/295/303
f 271/296/304 285/318/304 286/319/304
f 283/314/305 297/320/305 298/321/305
f 291/315/306 305/322/306 306/323/306
f 283/314/307 299/324/307 284/316/307
f 291/315/308 307/325/308 292/317/308
f 285/318/309 299/324/309 300/326/309
f 292/317/310 308/327/310 293/305/310
f 286/319/311 300/326/311 301/328/311
f 279/304/312 1/2/312 294/329/312
f 8/4/313 293/305/313 308/327/313
f 286/319/314 302/330/314 287/306/314
f 279/304/315 295/331/315 280/307/315
f 288/309/316 302/332/316 303/333/316
f 280/307/317 296/334/317 281/310/317
f 289/311/318 303/333/318 304/335/318
f 281/310/319 297/320/319 282/312/319
f 289/311/320 305/322/320 290/313/320
f 302/330/321 316/336/321 317/337/321
f 294/329/322 310/338/322 295/331/322
f 302/332/323 318/339/323 303/333/323
f 295/331/324 311/340/324 296/334/324
f 304/335/325 318/339/325 319/341/325
f 296/334/326 312/342/326 297/320/326
f 304/335/327 320/343/327 305/322/327
f 298/321/328 312/342/328 313/344/328
f 306/323/329 320/343/329 321/345/329
f 298/321/330 314/346/330 299/324/330
f 306/323/331 322/347/331 307/325/331
f 300/326/332 314/346/332 315/348/332
f 307/325/333 323/349/333 308/327/333
f 301/328/334 315/348/334 316/336/334
f 294/329/335 1/2/335 309/350/335
f 8/4/336 308/327/336 323/349/336
f 321/345/337 335/351/337 336/352/337
f 313/344/338 329/353/338 314/346/338
f 321/345/339 337/354/339 322/347/339
f 315/348/340 329/353/340 330/355/340
f 323/349/341 337/354/341 338/356/341
f 316/336/342 330/355/342 331/357/342
f 309/350/343 1/2/343 324/358/343
f 8/4/344 323/349/344 338/356/344
f 317/337/345 331/357/345 332/359/345
f 309/350/346 325/360/346 310/338/346
f 317/361/347 333/362/347 318/339/347
f 310/338/348 326/363/348 311/340/348
f 319/341/349 333/362/349 334/364/349
f 311/340/350 327/365/350 312/342/350
f 319/341/351 335/351/351 320/343/351
f 313/344/352 327/365/352 328/366/352
f 332/367/353 348/368/353 333/362/353
f 325/360/354 341/369/354 326/363/354
f 334/364/355 348/368/355 349/370/355
f 326/363/356 342/371/356 327/365/356
f 334/364/357 350/372/357 335/351/357
f 328/366/358 342/371/358 343/373/358
f 336/352/359 350/372/359 351/374/359
f 328/366/360 344/375/360 329/353/360
f 336/352/361 352/376/361 337/354/361
f 330/355/362 344/375/362 345/377/362
f 337/354/363 353/378/363 338/356/363
f 331/357/364 345/377/364 346/379/364
f 324/358/365 1/2/365 339/380/365
f 8/4/366 338/356/366 353/378/366
f 332/359/367 346/379/367 347/381/367
f 325/360/368 339/380/368 340/382/368
f 351/374/369 367/383/369 352/376/369
f 345/377/370 359/384/370 360/385/370
f 352/376/371 368/386/371 353/378/371
f 346/379/372 360/385/372 361/387/372
f 339/380/373 1/2/373 354/388/373
f 8/4/374 353/378/374 368/386/374
f 347/381/375 361/387/375 362/389/375
f 339/380/376 355/390/376 340/382/376
f 347/391/377 363/392/377 348/368/377
f 341/369/378 355/390/378 356/393/378
f 349/370/379 363/392/379 364/394/379
f 341/369/380 357/395/380 342/371/380
f 349/370/381 365/396/381 350/372/381
f 343/373/382 357/395/382 358/397/382
f 351/374/383 365/396/383 366/398/383
f 343/373/384 359/384/384 344/375/384
f 356/393/385 370/399/385 371/400/385
f 364/394/386 378/401/386 379/402/386
f 356/393/387 372/403/387 357/395/387
f 364/394/388 380/404/388 365/396/388
f 358/397/389 372/403/389 373/405/389
f 366/398/390 380/404/390 381/406/390
f 358/397/391 374/407/391 359/384/391
f 366/398/392 382/408/392 367/383/392
f 360/385/393 374/407/393 375/409/393
f 367/383/394 383/410/394 368/386/394
f 361/387/395 375/409/395 376/411/395
f 354/388/396 1/2/396 369/412/396
f 8/4/397 368/386/397 383/410/397
f 361/387/398 377/413/398 362/389/398
f 354/388/399 370/399/399 355/390/399
f 363/392/400 377/414/400 378/401/400
f 375/409/401 389/415/401 390/416/401
f 382/408/402 398/417/402 383/410/402
f 376/411/403 390/416/403 391/418/403
f 369/412/404 1/2/404 384/419/404
f 8/4/405 383/410/405 398/417/405
f 376/411/406 392/420/406 377/413/406
f 369/412/407 385/421/407 370/399/407
f 378/401/408 392/422/408 393/423/408
f 370/399/409 386/424/409 371/400/409
f 379/402/410 393/423/410 394/425/410
f 371/400/411 387/426/411 372/403/411
f 379/402/412 395/427/412 380/404/412
f 373/405/413 387/426/413 388/428/413
f 381/406/414 395/427/414 396/429/414
f 373/405/415 389/415/415 374/407/415
f 381/406/416 397/430/416 382/408/416
f 394/425/417 408/431/417 409/432/417
f 386/424/418 402/433/418 387/426/418
f 394/425/419 410/434/419 395/427/419
f 388/428/420 402/433/420 403/435/420
f 396/429/421 410/434/421 411/436/421
f 388/428/422 404/437/422 389/415/422
f 396/429/423 412/438/423 397/430/423
f 390/416/424 404/437/424 405/439/424
f 398/417/425 412/438/425 413/440/425
f 391/418/426 405/439/426 406/441/426
f 384/419/427 1/2/427 399/442/427
f 8/4/428 398/417/428 413/440/428
f 391/418/429 407/443/429 392/420/429
f 384/419/430 400/444/430 385/421/430
f 393/423/431 407/445/431 408/431/431
f 385/421/432 401/446/432 386/424/432
f 412/438/433 428/447/433 413/440/433
f 406/441/434 420/448/434 421/449/434
f 399/442/435 1/2/435 414/450/435
f 8/4/436 413/440/436 428/447/436
f 406/441/437 422/451/437 407/443/437
f 399/442/438 415/452/438 400/444/438
f 408/431/439 422/453/439 423/454/439
f 401/446/440 415/452/440 416/455/440
f 409/432/441 423/454/441 424/456/441
f 401/446/442 417/457/442 402/433/442
f 409/432/443 425/458/443 410/434/443
f 403/435/444 417/457/444 418/459/444
f 411/436/445 425/458/445 426/460/445
f 403/435/446 419/461/446 404/437/446
f 411/436/447 427/462/447 412/438/447
f 405/439/448 419/461/448 420/448/448
f 416/455/449 432/463/449 417/457/449
f 424/456/450 440/464/450 425/458/450
f 418/459/451 432/463/451 433/465/451
f 426/460/452 440/464/452 441/466/452
f 418/459/453 434/467/453 419/461/453
f 426/460/454 442/468/454 427/462/454
f 420/448/455 434/467/455 435/469/455
f 428/447/456 442/468/456 443/470/456
f 421/449/457 435/469/457 436/471/457
f 414/450/458 1/2/458 429/472/458
f 8/4/459 428/447/459 443/470/459
f 422/451/460 436/471/460 437/473/460
f 414/450/461 430/474/461 415/452/461
f 422/453/462 438/475/462 423/454/462
f 416/455/463 430/474/463 431/476/463
f 424/456/464 438/475/464 439/477/464
f 436/471/465 450/478/465 451/479/465
f 429/472/466 1/2/466 444/480/466
f 8/4/467 443/470/467 458/481/467
f 437/473/468 451/479/468 452/482/468
f 429/472/469 445/483/469 430/474/469
f 437/484/470 453/485/470 438/475/470
f 430/474/471 446/486/471 431/476/471
f 439/477/472 453/485/472 454/487/472
f 431/476/473 447/488/473 432/463/473
f 439/477/474 455/489/474 440/464/474
f 433/465/475 447/488/475 448/490/475
f 441/466/476 455/489/476 456/491/476
f 433/465/477 449/492/477 434/467/477
f 441/466/478 457/493/478 442/468/478
f 435/469/479 449/492/479 450/478/479
f 443/470/480 457/493/480 458/481/480
f 454/487/481 470/494/481 455/489/481
f 448/490/482 462/495/482 463/496/482
f 456/491/483 470/494/483 471/497/483
f 448/490/484 464/498/484 449/492/484
f 456/491/485 472/499/485 457/493/485
f 450/478/486 464/498/486 465/500/486
f 458/481/487 472/499/487 473/501/487
f 451/479/488 465/500/488 466/502/488
f 444/480/489 1/2/489 459/503/489
f 8/4/490 458/481/490 473/501/490
f 452/482/491 466/502/491 467/504/491
f 444/480/492 460/505/492 445/483/492
f 452/506/493 468/507/493 453/485/493
f 446/486/494 460/505/494 461/508/494
f 454/487/495 468/507/495 469/509/495
f 446/486/496 462/495/496 447/488/496
f 8/4/497 473/501/497 482/5/497
f 467/504/498 5/7/498 6/9/498
f 459/503/499 475/10/499 460/505/499
f 467/510/500 478/12/500 468/507/500
f 461/508/501 475/10/501 2/15/501
f 468/507/502 7/18/502 469/509/502
f 462/495/503 2/15/503 476/19/503
f 469/509/504 479/22/504 470/494/504
f 463/496/505 476/19/505 3/23/505
f 471/497/506 479/22/506 480/26/506
f 464/498/507 3/23/507 477/27/507
f 471/497/508 481/30/508 472/499/508
f 465/500/509 477/27/509 4/31/509
f 472/499/510 482/5/510 473/501/510
f 466/502/511 4/31/511 5/7/511
f 459/503/512 1/2/512 474/1/512
f 5/7/513 16/33/513 17/8/513
f 475/10/4 474/1/4 9/3/4
f 478/12/514 6/511/514 17/13/514
f 2/15/6 475/10/6 10/11/6
f 478/12/7 18/14/7 19/17/7
f 476/19/8 2/15/8 11/16/8
f 7/18/9 19/17/9 20/21/9
f 3/23/10 476/19/10 12/20/10
f 479/22/11 20/21/11 21/25/11
f 477/27/12 3/23/12 13/24/12
f 480/26/13 21/25/13 22/29/13
f 4/31/14 477/27/14 14/28/14
f 481/30/15 22/29/15 23/6/15
f 4/31/515 15/32/515 16/33/515
f 15/32/17 14/28/17 29/34/17
f 23/6/18 22/29/18 37/36/18
f 15/32/19 30/35/19 31/38/19
f 16/33/22 31/38/22 32/40/22
f 9/3/23 24/39/23 25/41/23
f 18/14/24 17/13/24 32/42/24
f 10/11/25 25/41/25 26/44/25
f 19/17/26 18/14/26 33/43/26
f 11/16/27 26/44/27 27/46/27
f 20/21/28 19/17/28 34/45/28
f 12/20/29 27/46/29 28/48/29
f 20/21/30 35/47/30 36/49/30
f 13/24/31 28/48/31 29/34/31
f 22/29/32 21/25/32 36/49/32
f 34/45/33 33/43/33 48/50/33
f 26/44/34 41/65/34 42/52/34
f 34/45/35 49/51/35 50/53/35
f 27/46/36 42/52/36 43/54/36
f 36/49/37 35/47/37 50/53/37
f 28/48/38 43/54/38 44/56/38
f 37/36/39 36/49/39 51/55/39
f 30/35/40 29/34/40 44/56/40
f 38/37/41 37/36/41 52/57/41
f 30/35/42 45/58/42 46/60/42
f 31/38/45 46/60/45 47/62/45
f 24/39/46 39/61/46 40/63/46
f 33/43/47 32/42/47 47/64/47
f 25/41/516 40/63/516 41/65/516
f 53/59/49 52/57/49 67/66/49
f 46/60/50 45/58/50 60/68/50
f 46/60/53 61/69/53 62/71/53
f 39/61/54 54/70/54 55/72/54
f 48/50/55 47/64/55 62/73/55
f 40/63/56 55/72/56 56/75/56
f 49/51/57 48/50/57 63/74/57
f 41/65/58 56/75/58 57/77/58
f 49/51/59 64/76/59 65/78/59
f 43/54/60 42/52/60 57/77/60
f 51/55/61 50/53/61 65/78/61
f 43/54/62 58/79/62 59/81/62
f 51/55/63 66/80/63 67/66/63
f 44/56/64 59/81/64 60/68/64
f 64/76/65 79/96/65 80/82/65
f 58/79/66 57/77/66 72/83/66
f 66/80/67 65/78/67 80/82/67
f 58/79/68 73/84/68 74/86/68
f 66/80/69 81/85/69 82/87/69
f 60/68/70 59/81/70 74/86/70
f 67/66/71 82/87/71 83/89/71
f 61/69/72 60/68/72 75/88/72
f 62/71/75 61/69/75 76/90/75
f 54/70/76 69/91/76 70/93/76
f 62/73/77 77/102/77 78/94/77
f 55/72/78 70/93/78 71/95/78
f 64/76/79 63/74/79 78/94/79
f 56/75/80 71/95/80 72/83/80
f 77/92/83 76/90/83 91/99/83
f 69/91/84 84/97/84 85/101/84
f 77/102/85 92/125/85 93/103/85
f 70/93/86 85/101/86 86/104/86
f 79/96/87 78/94/87 93/103/87
f 71/95/88 86/104/88 87/106/88
f 79/96/89 94/105/89 95/107/89
f 73/84/90 72/83/90 87/106/90
f 81/85/91 80/82/91 95/107/91
f 73/84/92 88/108/92 89/110/92
f 82/87/93 81/85/93 96/109/93
f 75/88/94 74/86/94 89/110/94
f 83/89/95 82/87/95 97/111/95
f 76/90/96 75/88/96 90/112/96
f 88/108/97 87/106/97 102/113/97
f 96/109/98 95/107/98 110/115/98
f 88/108/99 103/114/99 104/117/99
f 96/109/100 111/116/100 112/118/100
f 90/112/101 89/110/101 104/117/101
f 98/98/102 97/111/102 112/118/102
f 91/99/103 90/112/103 105/119/103
f 92/100/106 91/99/106 106/121/106
f 85/101/107 84/97/107 99/122/107
f 92/125/108 107/132/108 108/126/108
f 85/101/109 100/124/109 101/127/109
f 94/105/110 93/103/110 108/126/110
f 86/104/111 101/127/111 102/113/111
f 94/105/112 109/128/112 110/115/112
f 107/123/517 106/121/517 121/129/517
f 99/122/114 114/144/114 115/131/114
f 107/132/518 122/512/518 123/133/518
f 100/124/116 115/131/116 116/134/116
f 109/128/117 108/126/117 123/133/117
f 101/127/118 116/134/118 117/136/118
f 109/128/119 124/135/119 125/137/119
f 103/114/120 102/113/120 117/136/120
f 111/116/121 110/115/121 125/137/121
f 103/114/122 118/138/122 119/140/122
f 111/116/123 126/139/123 127/141/123
f 105/119/124 104/117/124 119/140/124
f 113/120/125 112/118/125 127/141/125
f 106/121/126 105/119/126 120/142/126
f 126/139/129 125/137/129 140/145/129
f 118/138/130 133/160/130 134/147/130
f 126/139/131 141/146/131 142/148/131
f 120/142/132 119/140/132 134/147/132
f 127/141/133 142/148/133 143/150/133
f 121/129/134 120/142/134 135/149/134
f 121/129/519 136/151/519 137/153/519
f 114/144/138 129/152/138 130/154/138
f 123/133/520 122/512/520 137/155/520
f 115/131/140 130/154/140 131/157/140
f 124/135/141 123/133/141 138/156/141
f 116/134/142 131/157/142 132/159/142
f 124/135/143 139/158/143 140/145/143
f 118/138/144 117/136/144 132/159/144
f 129/152/145 144/175/145 145/161/145
f 138/156/146 137/155/146 152/162/146
f 131/157/147 130/154/147 145/161/147
f 139/158/148 138/156/148 153/163/148
f 131/157/149 146/164/149 147/166/149
f 139/158/150 154/165/150 155/167/150
f 133/160/151 132/159/151 147/166/151
f 141/146/152 140/145/152 155/167/152
f 133/160/153 148/168/153 149/170/153
f 141/146/154 156/169/154 157/171/154
f 135/149/155 134/147/155 149/170/155
f 142/148/156 157/171/156 158/173/156
f 136/151/157 135/149/157 150/172/157
f 136/151/160 151/174/160 152/176/160
f 148/168/161 163/191/161 164/177/161
f 156/169/162 171/192/162 172/178/162
f 150/172/163 149/170/163 164/177/163
f 158/173/164 157/171/164 172/178/164
f 151/174/165 150/172/165 165/179/165
f 151/174/168 166/181/168 167/183/168
f 144/175/169 159/182/169 160/184/169
f 153/163/170 152/162/170 167/185/170
f 145/161/521 160/184/521 161/187/521
f 154/165/172 153/163/172 168/186/172
f 146/164/173 161/187/173 162/189/173
f 154/165/174 169/188/174 170/190/174
f 148/168/175 147/166/175 162/189/175
f 156/169/176 155/167/176 170/190/176
f 168/186/177 167/185/177 182/193/177
f 160/184/178 175/208/178 176/195/178
f 169/188/179 168/186/179 183/194/179
f 161/187/180 176/195/180 177/197/180
f 169/188/181 184/196/181 185/198/181
f 163/191/182 162/189/182 177/197/182
f 171/192/183 170/190/183 185/198/183
f 163/191/184 178/199/184 179/201/184
f 171/192/185 186/200/185 187/202/185
f 165/179/186 164/177/186 179/201/186
f 173/180/187 172/178/187 187/202/187
f 166/181/188 165/179/188 180/203/188
f 166/181/191 181/205/191 182/207/191
f 159/182/192 174/206/192 175/208/192
f 186/200/193 201/223/193 202/209/193
f 180/203/194 179/201/194 194/210/194
f 187/202/195 202/209/195 203/212/195
f 181/205/196 180/203/196 195/211/196
f 182/207/199 181/205/199 196/213/199
f 174/206/200 189/214/200 190/216/200
f 182/193/201 197/238/201 198/217/201
f 175/208/202 190/216/202 191/218/202
f 184/196/203 183/194/203 198/217/203
f 176/195/204 191/218/204 192/220/204
f 184/196/205 199/219/205 200/221/205
f 178/199/206 177/197/206 192/220/206
f 186/200/207 185/198/207 200/221/207
f 178/199/208 193/222/208 194/210/208
f 199/219/209 198/217/209 213/224/209
f 191/218/210 206/239/210 207/226/210
f 199/219/211 214/225/211 215/227/211
f 193/222/212 192/220/212 207/226/212
f 201/223/213 200/221/213 215/227/213
f 193/222/214 208/228/214 209/230/214
f 201/223/215 216/229/215 217/231/215
f 195/211/216 194/210/216 209/230/216
f 202/209/217 217/231/217 218/233/217
f 196/213/218 195/211/218 210/232/218
f 197/215/221 196/213/221 211/234/221
f 189/214/222 204/235/222 205/237/222
f 197/238/223 212/246/223 213/224/223
f 190/216/224 205/237/224 206/239/224
f 217/231/225 232/255/225 233/240/225
f 211/234/226 210/232/226 225/241/226
f 212/236/229 211/234/229 226/242/229
f 205/237/230 204/235/230 219/243/230
f 212/246/231 227/268/231 228/247/231
f 205/237/232 220/245/232 221/248/232
f 214/225/233 213/224/233 228/247/233
f 206/239/234 221/248/234 222/250/234
f 214/225/235 229/249/235 230/251/235
f 208/228/236 207/226/236 222/250/236
f 216/229/237 215/227/237 230/251/237
f 208/228/238 223/252/238 224/254/238
f 216/229/239 231/253/239 232/255/239
f 210/232/240 209/230/240 224/254/240
f 221/248/241 236/270/241 237/256/241
f 229/249/242 244/271/242 245/257/242
f 223/252/243 222/250/243 237/256/243
f 231/253/244 230/251/244 245/257/244
f 223/252/245 238/258/245 239/260/245
f 232/255/246 231/253/246 246/259/246
f 225/241/247 224/254/247 239/260/247
f 232/255/248 247/261/248 248/263/248
f 226/242/249 225/241/249 240/262/249
f 227/244/522 226/242/522 241/264/522
f 220/245/253 219/243/253 234/265/253
f 227/268/523 242/513/523 243/269/523
f 221/248/255 220/245/255 235/267/255
f 229/249/256 228/247/256 243/269/256
f 241/264/524 240/262/524 255/272/524
f 241/264/525 256/273/525 257/276/525
f 234/265/261 249/274/261 250/277/261
f 243/269/526 242/513/526 257/278/526
f 235/267/263 250/277/263 251/280/263
f 244/271/264 243/269/264 258/279/264
f 236/270/265 251/280/265 252/282/265
f 244/271/266 259/281/266 260/283/266
f 238/258/267 237/256/267 252/282/267
f 246/259/268 245/257/268 260/283/268
f 238/258/269 253/284/269 254/286/269
f 246/259/270 261/285/270 262/287/270
f 240/262/271 239/260/271 254/286/271
f 247/261/272 262/287/272 263/275/272
f 259/281/273 274/303/273 275/288/273
f 253/284/274 252/282/274 267/289/274
f 261/285/275 260/283/275 275/288/275
f 253/284/276 268/290/276 269/292/276
f 262/287/277 261/285/277 276/291/277
f 255/272/278 254/286/278 269/292/278
f 262/287/279 277/293/279 278/295/279
f 256/273/280 255/272/280 270/294/280
f 256/273/283 271/296/283 272/298/283
f 250/277/284 249/274/284 264/297/284
f 258/279/285 257/278/285 272/300/285
f 250/277/286 265/299/286 266/302/286
f 259/281/287 258/279/287 273/301/287
f 251/280/288 266/302/288 267/289/288
f 271/296/291 286/319/291 287/306/291
f 265/299/292 264/297/292 279/304/292
f 273/301/293 272/300/293 287/308/293
f 265/299/527 280/307/527 281/310/527
f 274/303/295 273/301/295 288/309/295
f 266/302/296 281/310/296 282/312/296
f 274/303/297 289/311/297 290/313/297
f 268/290/298 267/289/298 282/312/298
f 276/291/299 275/288/299 290/313/299
f 268/290/300 283/314/300 284/316/300
f 276/291/301 291/315/301 292/317/301
f 270/294/302 269/292/302 284/316/302
f 277/293/303 292/317/303 293/305/303
f 271/296/304 270/294/304 285/318/304
f 283/314/305 282/312/305 297/320/305
f 291/315/306 290/313/306 305/322/306
f 283/314/307 298/321/307 299/324/307
f 291/315/308 306/323/308 307/325/308
f 285/318/309 284/316/309 299/324/309
f 292/317/310 307/325/310 308/327/310
f 286/319/311 285/318/311 300/326/311
f 286/319/314 301/328/314 302/330/314
f 279/304/315 294/329/315 295/331/315
f 288/309/316 287/308/316 302/332/316
f 280/307/317 295/331/317 296/334/317
f 289/311/318 288/309/318 303/333/318
f 281/310/319 296/334/319 297/320/319
f 289/311/320 304/335/320 305/322/320
f 302/330/321 301/328/321 316/336/321
f 294/329/322 309/350/322 310/338/322
f 302/332/323 317/361/323 318/339/323
f 295/331/324 310/338/324 311/340/324
f 304/335/325 303/333/325 318/339/325
f 296/334/326 311/340/326 312/342/326
f 304/335/327 319/341/327 320/343/327
f 298/321/328 297/320/328 312/342/328
f 306/323/329 305/322/329 320/343/329
f 298/321/330 313/344/330 314/346/330
f 306/323/331 321/345/331 322/347/331
f 300/326/332 299/324/332 314/346/332
f 307/325/333 322/347/333 323/349/333
f 301/328/334 300/326/334 315/348/334
f 321/345/337 320/343/337 335/351/337
f 313/344/338 328/366/338 329/353/338
f 321/345/339 336/352/339 337/354/339
f 315/348/340 314/346/340 329/353/340
f 323/349/341 322/347/341 337/354/341
f 316/336/342 315/348/342 330/355/342
f 317/337/345 316/336/345 331/357/345
f 309/350/346 324/358/346 325/360/346
f 317/361/347 332/367/347 333/362/347
f 310/338/348 325/360/348 326/363/348
f 319/341/349 318/339/349 333/362/349
f 311/340/350 326/363/350 327/365/350
f 319/341/351 334/364/351 335/351/351
f 313/344/352 312/342/352 327/365/352
f 332/367/353 347/391/353 348/368/353
f 325/360/354 340/382/354 341/369/354
f 334/364/355 333/362/355 348/368/355
f 326/363/356 341/369/356 342/371/356
f 334/364/357 349/370/357 350/372/357
f 328/366/358 327/365/358 342/371/358
f 336/352/359 335/351/359 350/372/359
f 328/366/360 343/373/360 344/375/360
f 336/352/361 351/374/361 352/376/361
f 330/355/362 329/353/362 344/375/362
f 337/354/363 352/376/363 353/378/363
f 331/357/364 330/355/364 345/377/364
f 332/359/367 331/357/367 346/379/367
f 325/360/368 324/358/368 339/380/368
f 351/374/369 366/398/369 367/383/369
f 345/377/370 344/375/370 359/384/370
f 352/376/371 367/383/371 368/386/371
f 346/379/528 345/377/528 360/385/528
f 347/381/529 346/379/529 361/387/529
f 339/380/376 354/388/376 355/390/376
f 347/391/530 362/514/530 363/392/530
f 341/369/378 340/382/378 355/390/378
f 349/370/379 348/368/379 363/392/379
f 341/369/380 356/393/380 357/395/380
f 349/370/381 364/394/381 365/396/381
f 343/373/382 342/371/382 357/395/382
f 351/374/383 350/372/383 365/396/383
f 343/373/384 358/397/384 359/384/384
f 356/393/385 355/390/385 370/399/385
f 364/394/386 363/392/386 378/401/386
f 356/393/387 371/400/387 372/403/387
f 364/394/388 379/402/388 380/404/388
f 358/397/389 357/395/389 372/403/389
f 366/398/390 365/396/390 380/404/390
f 358/397/391 373/405/391 374/407/391
f 366/398/392 381/406/392 382/408/392
f 360/385/393 359/384/393 374/407/393
f 367/383/394 382/408/394 383/410/394
f 361/387/531 360/385/531 375/409/531
f 361/387/532 376/411/532 377/413/532
f 354/388/399 369/412/399 370/399/399
f 363/392/533 362/514/533 377/414/533
f 375/409/401 374/407/401 389/415/401
f 382/408/402 397/430/402 398/417/402
f 376/411/403 375/409/403 390/416/403
f 376/411/406 391/418/406 392/420/406
f 369/412/407 384/419/407 385/421/407
f 378/401/408 377/414/408 392/422/408
f 370/399/409 385/421/409 386/424/409
f 379/402/410 378/401/410 393/423/410
f 371/400/411 386/424/411 387/426/411
f 379/402/412 394/425/412 395/427/412
f 373/405/413 372/403/413 387/426/413
f 381/406/414 380/404/414 395/427/414
f 373/405/415 388/428/415 389/415/415
f 381/406/416 396/429/416 397/430/416
f 394/425/417 393/423/417 408/431/417
f 386/424/418 401/446/418 402/433/418
f 394/425/419 409/432/419 410/434/419
f 388/428/420 387/426/420 402/433/420
f 396/429/421 395/427/421 410/434/421
f 388/428/422 403/435/422 404/437/422
f 396/429/423 411/436/423 412/438/423
f 390/416/424 389/415/424 404/437/424
f 398/417/425 397/430/425 412/438/425
f 391/418/426 390/416/426 405/439/426
f 391/418/429 406/441/429 407/443/429
f 384/419/430 399/442/430 400/444/430
f 393/423/431 392/422/431 407/445/431
f 385/421/432 400/444/432 401/446/432
f 412/438/433 427/462/433 428/447/433
f 406/441/434 405/439/434 420/448/434
f 406/441/437 421/449/437 422/451/437
f 399/442/438 414/450/438 415/452/438
f 408/431/439 407/445/439 422/453/439
f 401/446/440 400/444/440 415/452/440
f 409/432/441 408/431/441 423/454/441
f 401/446/442 416/455/442 417/457/442
f 409/432/443 424/456/443 425/458/443
f 403/435/444 402/433/444 417/457/444
f 411/436/445 410/434/445 425/458/445
f 403/435/446 418/459/446 419/461/446
f 411/436/447 426/460/447 427/462/447
f 405/439/448 404/437/448 419/461/448
f 416/455/449 431/476/449 432/463/449
f 424/456/450 439/477/450 440/464/450
f 418/459/451 417/457/451 432/463/451
f 426/460/452 425/458/452 440/464/452
f 418/459/453 433/465/453 434/467/453
f 426/460/454 441/466/454 442/468/454
f 420/448/455 419/461/455 434/467/455
f 428/447/456 427/462/456 442/468/456
f 421/449/457 420/448/457 435/469/457
f 422/451/460 421/449/460 436/471/460
f 414/450/461 429/472/461 430/474/461
f 422/453/462 437/484/462 438/475/462
f 416/455/463 415/452/463 430/474/463
f 424/456/464 423/454/464 438/475/464
f 436/471/465 435/469/465 450/478/465
f 437/473/468 436/471/468 451/479/468
f 429/472/469 444/480/469 445/483/469
f 437/484/534 452/506/534 453/485/534
f 430/474/471 445/483/471 446/486/471
f 439/477/472 438/475/472 453/485/472
f 431/476/473 446/486/473 447/488/473
f 439/477/474 454/487/474 455/489/474
f 433/465/475 432/463/475 447/488/475
f 441/466/476 440/464/476 455/489/476
f 433/465/477 448/490/477 449/492/477
f 441/466/478 456/491/478 457/493/478
f 435/469/479 434/467/479 449/492/479
f 443/470/480 442/468/480 457/493/480
f 454/487/481 469/509/481 470/494/481
f 448/490/482 447/488/482 462/495/482
f 456/491/483 455/489/483 470/494/483
f 448/490/484 463/496/484 464/498/484
f 456/491/485 471/497/485 472/499/485
f 450/478/486 449/492/486 464/498/486
f 458/481/487 457/493/487 472/499/487
f 451/479/488 450/478/488 465/500/488
f 452/482/491 451/479/491 466/502/491
f 444/480/492 459/503/492 460/505/492
f 452/506/493 467/510/493 468/507/493
f 446/486/494 445/483/494 460/505/494
f 454/487/495 453/485/495 468/507/495
f 446/486/496 461/508/496 462/495/496
f 467/504/535 466/502/535 5/7/535
f 459/503/499 474/1/499 475/10/499
f 467/510/536 6/511/536 478/12/536
f 461/508/501 460/505/501 475/10/501
f 468/507/502 478/12/502 7/18/502
f 462/495/503 461/508/503 2/15/503
f 469/509/504 7/18/504 479/22/504
f 463/496/505 462/495/505 476/19/505
f 471/497/506 470/494/506 479/22/506
f 464/498/537 463/496/537 3/23/537
f 471/497/508 480/26/508 481/30/508
f 465/500/509 464/498/509 477/27/509
f 472/499/510 481/30/510 482/5/510
f 466/502/511 465/500/511 4/31/511
