# Blender 5.1.1
# www.blender.org
mtllib jellyfish_.oralarmobj.mtl
o 立方体.006
v -0.607249 -1.275788 0.150759
v -0.607249 -0.105103 0.150759
v -0.485132 -1.275788 0.150759
v -0.485132 -0.105103 0.150759
v -0.607249 -1.275788 0.270814
v -0.607249 -0.105103 0.270814
v -0.485132 -1.275788 0.270814
v -0.485132 -0.105103 0.270814
v -0.662513 -0.690446 0.150759
v -0.540396 -0.690446 0.150759
v -0.540396 -0.690446 0.270814
v -0.662513 -0.690446 0.270814
v -0.661487 -0.397775 0.150759
v -0.539370 -0.397775 0.150759
v -0.539370 -0.397775 0.270814
v -0.661487 -0.397775 0.270814
v -0.533996 -0.983117 0.150759
v -0.533996 -0.983117 0.270814
v -0.656114 -0.983117 0.270814
v -0.656114 -0.983117 0.150759
v -0.565997 -0.836782 0.150759
v -0.443879 -0.836782 0.150759
v -0.443879 -0.836782 0.270814
v -0.565997 -0.836782 0.270814
v -0.440794 -0.544110 0.150759
v -0.440794 -0.544110 0.270814
v -0.562911 -0.544110 0.270814
v -0.562911 -0.544110 0.150759
v -0.607249 -0.251439 0.150759
v -0.485132 -0.251439 0.150759
v -0.485132 -0.251439 0.270814
v -0.607249 -0.251439 0.270814
v -0.448439 -1.129453 0.150759
v -0.448439 -1.129453 0.270814
v -0.570557 -1.129453 0.270814
v -0.570557 -1.129453 0.150759
v 0.259304 -1.275788 0.667273
v 0.259304 -0.105103 0.667273
v 0.381421 -1.275788 0.667273
v 0.381421 -0.105103 0.667273
v 0.259304 -1.275788 0.787328
v 0.259304 -0.105103 0.787328
v 0.381421 -1.275788 0.787328
v 0.381421 -0.105103 0.787328
v 0.204040 -0.690446 0.667273
v 0.326157 -0.690446 0.667273
v 0.326157 -0.690446 0.787328
v 0.204040 -0.690446 0.787328
v 0.205066 -0.397775 0.667273
v 0.327184 -0.397775 0.667273
v 0.327184 -0.397775 0.787328
v 0.205066 -0.397775 0.787328
v 0.332557 -0.983117 0.667273
v 0.332557 -0.983117 0.787328
v 0.210439 -0.983117 0.787328
v 0.210439 -0.983117 0.667273
v 0.300557 -0.836782 0.667273
v 0.422674 -0.836782 0.667273
v 0.422674 -0.836782 0.787328
v 0.300557 -0.836782 0.787328
v 0.425760 -0.544110 0.667273
v 0.425760 -0.544110 0.787328
v 0.303642 -0.544110 0.787328
v 0.303642 -0.544110 0.667273
v 0.259304 -0.251439 0.667273
v 0.381421 -0.251439 0.667273
v 0.381421 -0.251439 0.787328
v 0.259304 -0.251439 0.787328
v 0.418114 -1.129453 0.667273
v 0.418114 -1.129453 0.787328
v 0.295996 -1.129453 0.787328
v 0.295996 -1.129453 0.667273
v 0.011253 -1.275788 -0.083194
v 0.011253 -0.105103 -0.083194
v 0.133371 -1.275788 -0.083194
v 0.133371 -0.105103 -0.083194
v 0.011253 -1.275788 0.036861
v 0.011253 -0.105103 0.036861
v 0.133371 -1.275788 0.036861
v 0.133371 -0.105103 0.036861
v -0.044010 -0.690446 -0.083194
v 0.078107 -0.690446 -0.083194
v 0.078107 -0.690446 0.036861
v -0.044010 -0.690446 0.036861
v -0.042984 -0.397775 -0.083194
v 0.079133 -0.397775 -0.083194
v 0.079133 -0.397775 0.036861
v -0.042984 -0.397775 0.036861
v 0.084507 -0.983117 -0.083194
v 0.084507 -0.983117 0.036861
v -0.037611 -0.983117 0.036861
v -0.037611 -0.983117 -0.083194
v 0.052506 -0.836782 -0.083194
v 0.174624 -0.836782 -0.083194
v 0.174624 -0.836782 0.036861
v 0.052506 -0.836782 0.036861
v 0.177709 -0.544110 -0.083194
v 0.177709 -0.544110 0.036861
v 0.055592 -0.544110 0.036861
v 0.055592 -0.544110 -0.083194
v 0.011253 -0.251439 -0.083194
v 0.133371 -0.251439 -0.083194
v 0.133371 -0.251439 0.036861
v 0.011253 -0.251439 0.036861
v 0.170063 -1.129453 -0.083194
v 0.170063 -1.129453 0.036861
v 0.047946 -1.129453 0.036861
v 0.047946 -1.129453 -0.083194
v 0.668083 -1.275788 0.231290
v 0.668083 -0.105103 0.231290
v 0.545965 -1.275788 0.231290
v 0.545965 -0.105103 0.231290
v 0.668083 -1.275788 0.111235
v 0.668083 -0.105103 0.111235
v 0.545965 -1.275788 0.111235
v 0.545965 -0.105103 0.111235
v 0.723347 -0.690446 0.231290
v 0.601229 -0.690446 0.231290
v 0.601229 -0.690446 0.111235
v 0.723347 -0.690446 0.111235
v 0.722320 -0.397775 0.231290
v 0.600203 -0.397775 0.231290
v 0.600203 -0.397775 0.111235
v 0.722320 -0.397775 0.111235
v 0.594830 -0.983117 0.231290
v 0.594830 -0.983117 0.111235
v 0.716947 -0.983117 0.111235
v 0.716947 -0.983117 0.231290
v 0.626830 -0.836782 0.231290
v 0.504713 -0.836782 0.231290
v 0.504713 -0.836782 0.111235
v 0.626830 -0.836782 0.111235
v 0.501627 -0.544110 0.231290
v 0.501627 -0.544110 0.111235
v 0.623744 -0.544110 0.111235
v 0.623744 -0.544110 0.231290
v 0.668083 -0.251439 0.231290
v 0.545965 -0.251439 0.231290
v 0.545965 -0.251439 0.111235
v 0.668083 -0.251439 0.111235
v 0.509273 -1.129453 0.231290
v 0.509273 -1.129453 0.111235
v 0.631390 -1.129453 0.111235
v 0.631390 -1.129453 0.231290
v -0.183987 -1.275788 0.779591
v -0.183987 -0.105103 0.779591
v -0.306104 -1.275788 0.779591
v -0.306104 -0.105103 0.779591
v -0.183987 -1.275788 0.659536
v -0.183987 -0.105103 0.659536
v -0.306104 -1.275788 0.659536
v -0.306104 -0.105103 0.659536
v -0.128723 -0.690446 0.779591
v -0.250840 -0.690446 0.779591
v -0.250840 -0.690446 0.659536
v -0.128723 -0.690446 0.659536
v -0.129749 -0.397775 0.779591
v -0.251867 -0.397775 0.779591
v -0.251867 -0.397775 0.659536
v -0.129749 -0.397775 0.659536
v -0.257240 -0.983117 0.779591
v -0.257240 -0.983117 0.659536
v -0.135122 -0.983117 0.659536
v -0.135122 -0.983117 0.779591
v -0.225240 -0.836782 0.779591
v -0.347357 -0.836782 0.779591
v -0.347357 -0.836782 0.659536
v -0.225240 -0.836782 0.659536
v -0.350443 -0.544110 0.779591
v -0.350443 -0.544110 0.659536
v -0.228325 -0.544110 0.659536
v -0.228325 -0.544110 0.779591
v -0.183987 -0.251439 0.779591
v -0.306104 -0.251439 0.779591
v -0.306104 -0.251439 0.659536
v -0.183987 -0.251439 0.659536
v -0.342797 -1.129453 0.779591
v -0.342797 -1.129453 0.659536
v -0.220679 -1.129453 0.659536
v -0.220679 -1.129453 0.779591
vn -0.0000 -0.0000 -1.0000
vn 1.0000 -0.0000 -0.0000
vn -0.0000 -0.0000 1.0000
vn -1.0000 -0.0000 -0.0000
vn -0.0000 -1.0000 -0.0000
vn -0.0000 1.0000 -0.0000
vn -0.8348 -0.5506 -0.0000
vn 0.8348 0.5506 -0.0000
vn -0.8294 -0.5587 -0.0000
vn 0.8294 0.5587 -0.0000
vn 0.8633 0.5047 -0.0000
vn -0.8633 -0.5047 -0.0000
vn 0.8515 -0.5244 -0.0000
vn -0.8515 0.5244 -0.0000
vn 0.8267 -0.5627 -0.0000
vn -0.8267 0.5627 -0.0000
vn -0.9377 0.3475 -0.0000
vn 0.9377 -0.3475 -0.0000
vn -0.9700 0.2432 -0.0000
vn 0.9700 -0.2432 -0.0000
vn 0.8348 -0.5506 -0.0000
vn -0.8348 0.5506 -0.0000
vn 0.8294 -0.5587 -0.0000
vn -0.8294 0.5587 -0.0000
vn -0.8633 0.5047 -0.0000
vn 0.8633 -0.5047 -0.0000
vn -0.8515 -0.5244 -0.0000
vn 0.8515 0.5244 -0.0000
vn -0.8267 -0.5627 -0.0000
vn 0.8267 0.5627 -0.0000
vn 0.9377 0.3475 -0.0000
vn -0.9377 -0.3475 -0.0000
vn 0.9700 0.2432 -0.0000
vn -0.9700 -0.2432 -0.0000
vt 0.555491 0.000192
vt 0.541619 0.111175
vt 0.541619 0.000192
vt 0.555491 0.111175
vt 0.541619 0.222158
vt 0.555491 0.222158
vt 0.541619 0.333141
vt 0.555491 0.333141
vt 0.541619 0.444124
vt 0.444508 0.222158
vt 0.333526 0.333141
vt 0.333526 0.222158
vt 0.666474 0.222158
vt 0.500000 0.333141
vt 0.486127 0.444124
vt 0.486127 0.333141
vt 0.500000 0.222158
vt 0.486127 0.222158
vt 0.500000 0.111175
vt 0.486127 0.111175
vt 0.486127 0.000192
vt 0.527746 0.333141
vt 0.513873 0.444124
vt 0.513873 0.333141
vt 0.527746 0.222158
vt 0.513873 0.222158
vt 0.527746 0.111175
vt 0.513873 0.111175
vt 0.513873 0.000192
vt 0.458381 0.000192
vt 0.472254 0.111175
vt 0.458381 0.111175
vt 0.458381 0.222158
vt 0.472254 0.222158
vt 0.458381 0.333141
vt 0.472254 0.333141
vt 0.458381 0.444124
vt 0.472254 0.000192
vt 0.472254 0.444124
vt 0.500000 0.000192
vt 0.500000 0.444124
vt 0.527746 0.444124
vt 0.527746 0.000192
vt 0.444508 0.444124
vt 0.444508 0.333141
vt 0.444508 0.111175
vt 0.444508 0.000192
vt 0.222158 0.444509
vt 0.208285 0.555491
vt 0.208285 0.444509
vt 0.222158 0.555491
vt 0.208285 0.666474
vt 0.222158 0.666474
vt 0.208285 0.777457
vt 0.222158 0.777457
vt 0.208285 0.888440
vt 0.111175 0.666474
vt 0.000192 0.777457
vt 0.000192 0.666474
vt 0.333141 0.666474
vt 0.166667 0.777457
vt 0.152794 0.888440
vt 0.152794 0.777457
vt 0.166667 0.666474
vt 0.152794 0.666474
vt 0.166667 0.555491
vt 0.152794 0.555491
vt 0.152794 0.444509
vt 0.194412 0.777457
vt 0.180540 0.888440
vt 0.180540 0.777457
vt 0.194412 0.666474
vt 0.180540 0.666474
vt 0.194412 0.555491
vt 0.180540 0.555491
vt 0.180540 0.444509
vt 0.125048 0.444509
vt 0.138921 0.555491
vt 0.125048 0.555491
vt 0.125048 0.666474
vt 0.138921 0.666474
vt 0.125048 0.777457
vt 0.138921 0.777457
vt 0.125048 0.888440
vt 0.138921 0.444509
vt 0.138921 0.888440
vt 0.166667 0.444509
vt 0.166667 0.888440
vt 0.194412 0.888440
vt 0.194412 0.444509
vt 0.111175 0.888440
vt 0.111175 0.777457
vt 0.111175 0.555491
vt 0.111175 0.444509
vt 0.555491 0.444508
vt 0.541619 0.555491
vt 0.541619 0.444508
vt 0.555491 0.555491
vt 0.541619 0.666474
vt 0.555491 0.666474
vt 0.541619 0.777457
vt 0.555491 0.777457
vt 0.541619 0.888440
vt 0.444508 0.666474
vt 0.333526 0.777457
vt 0.333526 0.666474
vt 0.666474 0.666474
vt 0.500000 0.777457
vt 0.486127 0.888440
vt 0.486127 0.777457
vt 0.500000 0.666474
vt 0.486127 0.666474
vt 0.500000 0.555491
vt 0.486127 0.555491
vt 0.486127 0.444508
vt 0.527746 0.777457
vt 0.513873 0.888440
vt 0.513873 0.777457
vt 0.527746 0.666474
vt 0.513873 0.666474
vt 0.527746 0.555491
vt 0.513873 0.555491
vt 0.513873 0.444508
vt 0.458381 0.444508
vt 0.472254 0.555491
vt 0.458381 0.555491
vt 0.458381 0.666474
vt 0.472254 0.666474
vt 0.458381 0.777457
vt 0.472254 0.777457
vt 0.458381 0.888440
vt 0.472254 0.444508
vt 0.472254 0.888440
vt 0.500000 0.444508
vt 0.500000 0.888440
vt 0.527746 0.888440
vt 0.527746 0.444508
vt 0.444508 0.888440
vt 0.444508 0.777457
vt 0.444508 0.555491
vt 0.444508 0.444508
vt 0.888825 0.000192
vt 0.874952 0.111175
vt 0.874952 0.000192
vt 0.888825 0.111175
vt 0.874952 0.222158
vt 0.888825 0.222158
vt 0.874952 0.333141
vt 0.888825 0.333141
vt 0.874952 0.444124
vt 0.777842 0.222158
vt 0.666859 0.333141
vt 0.666859 0.222158
vt 0.999808 0.222158
vt 0.833333 0.333141
vt 0.819460 0.444124
vt 0.819460 0.333141
vt 0.833333 0.222158
vt 0.819460 0.222158
vt 0.833333 0.111175
vt 0.819460 0.111175
vt 0.819460 0.000192
vt 0.861079 0.333141
vt 0.847206 0.444124
vt 0.847206 0.333141
vt 0.861079 0.222158
vt 0.847206 0.222158
vt 0.861079 0.111175
vt 0.847206 0.111175
vt 0.847206 0.000192
vt 0.791715 0.000192
vt 0.805588 0.111175
vt 0.791715 0.111175
vt 0.791715 0.222158
vt 0.805588 0.222158
vt 0.791715 0.333141
vt 0.805588 0.444124
vt 0.791715 0.444124
vt 0.805588 0.000192
vt 0.805588 0.333141
vt 0.833333 0.000192
vt 0.833333 0.444124
vt 0.861079 0.444124
vt 0.861079 0.000192
vt 0.777842 0.444124
vt 0.777842 0.333141
vt 0.777842 0.111175
vt 0.777842 0.000192
vt 0.222158 0.000192
vt 0.208285 0.111175
vt 0.208285 0.000192
vt 0.222158 0.111175
vt 0.208285 0.222158
vt 0.222158 0.222158
vt 0.208285 0.333141
vt 0.222158 0.333141
vt 0.208285 0.444124
vt 0.111175 0.222158
vt 0.000192 0.333141
vt 0.000192 0.222158
vt 0.333141 0.222158
vt 0.166667 0.333141
vt 0.152794 0.444124
vt 0.152794 0.333141
vt 0.166667 0.222158
vt 0.152794 0.222158
vt 0.166667 0.111175
vt 0.152794 0.111175
vt 0.152794 0.000192
vt 0.194412 0.333141
vt 0.180540 0.444124
vt 0.180540 0.333141
vt 0.194412 0.222158
vt 0.180540 0.222158
vt 0.194412 0.111175
vt 0.180540 0.111175
vt 0.180540 0.000192
vt 0.125048 0.000192
vt 0.138921 0.111175
vt 0.125048 0.111175
vt 0.125048 0.222158
vt 0.138921 0.222158
vt 0.125048 0.333141
vt 0.138921 0.333141
vt 0.125048 0.444124
vt 0.138921 0.000192
vt 0.138921 0.444124
vt 0.166667 0.000192
vt 0.166667 0.444124
vt 0.194412 0.444124
vt 0.194412 0.000192
vt 0.111175 0.444124
vt 0.111175 0.333141
vt 0.111175 0.111175
vt 0.111175 0.000192
vt 0.555491 0.444124
vt 0.666474 0.333141
vt 0.222158 0.888440
vt 0.333141 0.777457
vt 0.555491 0.888440
vt 0.666474 0.777457
vt 0.888825 0.444124
vt 0.999808 0.333141
vt 0.222158 0.444124
vt 0.333141 0.333141
s 0
usemtl マテリアル
f 2/1/1 30/2/1 29/3/1
f 4/4/2 31/5/2 30/2/2
f 8/6/3 32/7/3 31/5/3
f 6/8/4 29/9/4 32/7/4
f 7/10/5 1/11/5 3/12/5
f 4/13/6 6/8/6 8/6/6
f 12/14/7 21/15/7 24/16/7
f 11/17/3 24/16/3 23/18/3
f 10/19/8 23/18/8 22/20/8
f 21/21/1 10/19/1 22/20/1
f 16/22/9 28/23/9 27/24/9
f 15/25/3 27/24/3 26/26/3
f 14/27/10 26/26/10 25/28/10
f 28/29/1 14/27/1 25/28/1
f 36/30/1 17/31/1 33/32/1
f 17/31/11 34/33/11 33/32/11
f 18/34/3 35/35/3 34/33/3
f 19/36/12 36/37/12 35/35/12
f 21/21/1 17/31/1 20/38/1
f 22/20/13 18/34/13 17/31/13
f 18/34/3 24/16/3 19/36/3
f 24/16/14 20/39/14 19/36/14
f 28/29/1 10/19/1 9/40/1
f 25/28/15 11/17/15 10/19/15
f 11/17/3 27/24/3 12/14/3
f 27/24/16 9/41/16 12/14/16
f 32/7/17 13/42/17 16/22/17
f 15/25/3 32/7/3 16/22/3
f 30/2/18 15/25/18 14/27/18
f 29/3/1 14/27/1 13/43/1
f 35/35/19 1/44/19 5/45/19
f 7/10/3 35/35/3 5/45/3
f 33/32/20 7/10/20 3/46/20
f 36/30/1 3/46/1 1/47/1
f 38/48/1 66/49/1 65/50/1
f 40/51/2 67/52/2 66/49/2
f 44/53/3 68/54/3 67/52/3
f 42/55/4 65/56/4 68/54/4
f 43/57/5 37/58/5 39/59/5
f 40/60/6 42/55/6 44/53/6
f 48/61/7 57/62/7 60/63/7
f 47/64/3 60/63/3 59/65/3
f 46/66/8 59/65/8 58/67/8
f 57/68/1 46/66/1 58/67/1
f 52/69/9 64/70/9 63/71/9
f 51/72/3 63/71/3 62/73/3
f 50/74/10 62/73/10 61/75/10
f 64/76/1 50/74/1 61/75/1
f 72/77/1 53/78/1 69/79/1
f 53/78/11 70/80/11 69/79/11
f 54/81/3 71/82/3 70/80/3
f 55/83/12 72/84/12 71/82/12
f 57/68/1 53/78/1 56/85/1
f 58/67/13 54/81/13 53/78/13
f 54/81/3 60/63/3 55/83/3
f 60/63/14 56/86/14 55/83/14
f 64/76/1 46/66/1 45/87/1
f 61/75/15 47/64/15 46/66/15
f 47/64/3 63/71/3 48/61/3
f 63/71/16 45/88/16 48/61/16
f 68/54/17 49/89/17 52/69/17
f 51/72/3 68/54/3 52/69/3
f 66/49/18 51/72/18 50/74/18
f 65/50/1 50/74/1 49/90/1
f 71/82/19 37/91/19 41/92/19
f 43/57/3 71/82/3 41/92/3
f 69/79/20 43/57/20 39/93/20
f 72/77/1 39/93/1 37/94/1
f 74/95/1 102/96/1 101/97/1
f 76/98/2 103/99/2 102/96/2
f 80/100/3 104/101/3 103/99/3
f 78/102/4 101/103/4 104/101/4
f 79/104/5 73/105/5 75/106/5
f 76/107/6 78/102/6 80/100/6
f 84/108/7 93/109/7 96/110/7
f 83/111/3 96/110/3 95/112/3
f 82/113/8 95/112/8 94/114/8
f 93/115/1 82/113/1 94/114/1
f 88/116/9 100/117/9 99/118/9
f 87/119/3 99/118/3 98/120/3
f 86/121/10 98/120/10 97/122/10
f 100/123/1 86/121/1 97/122/1
f 108/124/1 89/125/1 105/126/1
f 89/125/11 106/127/11 105/126/11
f 90/128/3 107/129/3 106/127/3
f 91/130/12 108/131/12 107/129/12
f 93/115/1 89/125/1 92/132/1
f 94/114/13 90/128/13 89/125/13
f 90/128/3 96/110/3 91/130/3
f 96/110/14 92/133/14 91/130/14
f 100/123/1 82/113/1 81/134/1
f 97/122/15 83/111/15 82/113/15
f 83/111/3 99/118/3 84/108/3
f 99/118/16 81/135/16 84/108/16
f 104/101/17 85/136/17 88/116/17
f 87/119/3 104/101/3 88/116/3
f 102/96/18 87/119/18 86/121/18
f 101/97/1 86/121/1 85/137/1
f 107/129/19 73/138/19 77/139/19
f 79/104/3 107/129/3 77/139/3
f 105/126/20 79/104/20 75/140/20
f 108/124/1 75/140/1 73/141/1
f 110/142/3 138/143/3 137/144/3
f 112/145/4 139/146/4 138/143/4
f 116/147/1 140/148/1 139/146/1
f 114/149/2 137/150/2 140/148/2
f 115/151/5 109/152/5 111/153/5
f 112/154/6 114/149/6 116/147/6
f 120/155/21 129/156/21 132/157/21
f 119/158/1 132/157/1 131/159/1
f 118/160/22 131/159/22 130/161/22
f 129/162/3 118/160/3 130/161/3
f 124/163/23 136/164/23 135/165/23
f 123/166/1 135/165/1 134/167/1
f 122/168/24 134/167/24 133/169/24
f 136/170/3 122/168/3 133/169/3
f 144/171/3 125/172/3 141/173/3
f 125/172/25 142/174/25 141/173/25
f 126/175/1 143/176/1 142/174/1
f 143/176/26 128/177/26 144/178/26
f 129/162/3 125/172/3 128/179/3
f 130/161/27 126/175/27 125/172/27
f 126/175/1 132/157/1 127/180/1
f 132/157/28 128/177/28 127/180/28
f 136/170/3 118/160/3 117/181/3
f 118/160/29 134/167/29 119/158/29
f 119/158/1 135/165/1 120/155/1
f 135/165/30 117/182/30 120/155/30
f 140/148/31 121/183/31 124/163/31
f 123/166/1 140/148/1 124/163/1
f 138/143/32 123/166/32 122/168/32
f 137/144/3 122/168/3 121/184/3
f 143/176/33 109/185/33 113/186/33
f 115/151/1 143/176/1 113/186/1
f 141/173/34 115/151/34 111/187/34
f 144/171/3 111/187/3 109/188/3
f 146/189/3 174/190/3 173/191/3
f 148/192/4 175/193/4 174/190/4
f 152/194/1 176/195/1 175/193/1
f 150/196/2 173/197/2 176/195/2
f 151/198/5 145/199/5 147/200/5
f 148/201/6 150/196/6 152/194/6
f 156/202/21 165/203/21 168/204/21
f 155/205/1 168/204/1 167/206/1
f 154/207/22 167/206/22 166/208/22
f 165/209/3 154/207/3 166/208/3
f 160/210/23 172/211/23 171/212/23
f 159/213/1 171/212/1 170/214/1
f 158/215/24 170/214/24 169/216/24
f 172/217/3 158/215/3 169/216/3
f 180/218/3 161/219/3 177/220/3
f 161/219/25 178/221/25 177/220/25
f 162/222/1 179/223/1 178/221/1
f 163/224/26 180/225/26 179/223/26
f 165/209/3 161/219/3 164/226/3
f 166/208/27 162/222/27 161/219/27
f 162/222/1 168/204/1 163/224/1
f 168/204/28 164/227/28 163/224/28
f 172/217/3 154/207/3 153/228/3
f 154/207/29 170/214/29 155/205/29
f 155/205/1 171/212/1 156/202/1
f 171/212/30 153/229/30 156/202/30
f 176/195/31 157/230/31 160/210/31
f 159/213/1 176/195/1 160/210/1
f 158/215/32 175/193/32 159/213/32
f 173/191/3 158/215/3 157/231/3
f 179/223/33 145/232/33 149/233/33
f 151/198/1 179/223/1 149/233/1
f 177/220/34 151/198/34 147/234/34
f 180/218/3 147/234/3 145/235/3
f 2/1/1 4/4/1 30/2/1
f 4/4/2 8/6/2 31/5/2
f 8/6/3 6/8/3 32/7/3
f 6/8/4 2/236/4 29/9/4
f 7/10/5 5/45/5 1/11/5
f 4/13/6 2/237/6 6/8/6
f 12/14/7 9/41/7 21/15/7
f 11/17/3 12/14/3 24/16/3
f 10/19/8 11/17/8 23/18/8
f 21/21/1 9/40/1 10/19/1
f 16/22/9 13/42/9 28/23/9
f 15/25/3 16/22/3 27/24/3
f 14/27/10 15/25/10 26/26/10
f 28/29/1 13/43/1 14/27/1
f 36/30/1 20/38/1 17/31/1
f 17/31/11 18/34/11 34/33/11
f 18/34/3 19/36/3 35/35/3
f 19/36/12 20/39/12 36/37/12
f 21/21/1 22/20/1 17/31/1
f 22/20/13 23/18/13 18/34/13
f 18/34/3 23/18/3 24/16/3
f 24/16/14 21/15/14 20/39/14
f 28/29/1 25/28/1 10/19/1
f 25/28/15 26/26/15 11/17/15
f 11/17/3 26/26/3 27/24/3
f 27/24/16 28/23/16 9/41/16
f 32/7/17 29/9/17 13/42/17
f 15/25/3 31/5/3 32/7/3
f 30/2/18 31/5/18 15/25/18
f 29/3/1 30/2/1 14/27/1
f 35/35/19 36/37/19 1/44/19
f 7/10/3 34/33/3 35/35/3
f 33/32/20 34/33/20 7/10/20
f 36/30/1 33/32/1 3/46/1
f 38/48/1 40/51/1 66/49/1
f 40/51/2 44/53/2 67/52/2
f 44/53/3 42/55/3 68/54/3
f 42/55/4 38/238/4 65/56/4
f 43/57/5 41/92/5 37/58/5
f 40/60/6 38/239/6 42/55/6
f 48/61/7 45/88/7 57/62/7
f 47/64/3 48/61/3 60/63/3
f 46/66/8 47/64/8 59/65/8
f 57/68/1 45/87/1 46/66/1
f 52/69/9 49/89/9 64/70/9
f 51/72/3 52/69/3 63/71/3
f 50/74/10 51/72/10 62/73/10
f 64/76/1 49/90/1 50/74/1
f 72/77/1 56/85/1 53/78/1
f 53/78/11 54/81/11 70/80/11
f 54/81/3 55/83/3 71/82/3
f 55/83/12 56/86/12 72/84/12
f 57/68/1 58/67/1 53/78/1
f 58/67/13 59/65/13 54/81/13
f 54/81/3 59/65/3 60/63/3
f 60/63/14 57/62/14 56/86/14
f 64/76/1 61/75/1 46/66/1
f 61/75/15 62/73/15 47/64/15
f 47/64/3 62/73/3 63/71/3
f 63/71/16 64/70/16 45/88/16
f 68/54/17 65/56/17 49/89/17
f 51/72/3 67/52/3 68/54/3
f 66/49/18 67/52/18 51/72/18
f 65/50/1 66/49/1 50/74/1
f 71/82/19 72/84/19 37/91/19
f 43/57/3 70/80/3 71/82/3
f 69/79/20 70/80/20 43/57/20
f 72/77/1 69/79/1 39/93/1
f 74/95/1 76/98/1 102/96/1
f 76/98/2 80/100/2 103/99/2
f 80/100/3 78/102/3 104/101/3
f 78/102/4 74/240/4 101/103/4
f 79/104/5 77/139/5 73/105/5
f 76/107/6 74/241/6 78/102/6
f 84/108/7 81/135/7 93/109/7
f 83/111/3 84/108/3 96/110/3
f 82/113/8 83/111/8 95/112/8
f 93/115/1 81/134/1 82/113/1
f 88/116/9 85/136/9 100/117/9
f 87/119/3 88/116/3 99/118/3
f 86/121/10 87/119/10 98/120/10
f 100/123/1 85/137/1 86/121/1
f 108/124/1 92/132/1 89/125/1
f 89/125/11 90/128/11 106/127/11
f 90/128/3 91/130/3 107/129/3
f 91/130/12 92/133/12 108/131/12
f 93/115/1 94/114/1 89/125/1
f 94/114/13 95/112/13 90/128/13
f 90/128/3 95/112/3 96/110/3
f 96/110/14 93/109/14 92/133/14
f 100/123/1 97/122/1 82/113/1
f 97/122/15 98/120/15 83/111/15
f 83/111/3 98/120/3 99/118/3
f 99/118/16 100/117/16 81/135/16
f 104/101/17 101/103/17 85/136/17
f 87/119/3 103/99/3 104/101/3
f 102/96/18 103/99/18 87/119/18
f 101/97/1 102/96/1 86/121/1
f 107/129/19 108/131/19 73/138/19
f 79/104/3 106/127/3 107/129/3
f 105/126/20 106/127/20 79/104/20
f 108/124/1 105/126/1 75/140/1
f 110/142/3 112/145/3 138/143/3
f 112/145/4 116/147/4 139/146/4
f 116/147/1 114/149/1 140/148/1
f 114/149/2 110/242/2 137/150/2
f 115/151/5 113/186/5 109/152/5
f 112/154/6 110/243/6 114/149/6
f 120/155/21 117/182/21 129/156/21
f 119/158/1 120/155/1 132/157/1
f 118/160/22 119/158/22 131/159/22
f 129/162/3 117/181/3 118/160/3
f 124/163/23 121/183/23 136/164/23
f 123/166/1 124/163/1 135/165/1
f 122/168/24 123/166/24 134/167/24
f 136/170/3 121/184/3 122/168/3
f 144/171/3 128/179/3 125/172/3
f 125/172/25 126/175/25 142/174/25
f 126/175/1 127/180/1 143/176/1
f 143/176/26 127/180/26 128/177/26
f 129/162/3 130/161/3 125/172/3
f 130/161/27 131/159/27 126/175/27
f 126/175/1 131/159/1 132/157/1
f 132/157/28 129/156/28 128/177/28
f 136/170/3 133/169/3 118/160/3
f 118/160/29 133/169/29 134/167/29
f 119/158/1 134/167/1 135/165/1
f 135/165/30 136/164/30 117/182/30
f 140/148/31 137/150/31 121/183/31
f 123/166/1 139/146/1 140/148/1
f 138/143/32 139/146/32 123/166/32
f 137/144/3 138/143/3 122/168/3
f 143/176/33 144/178/33 109/185/33
f 115/151/1 142/174/1 143/176/1
f 141/173/34 142/174/34 115/151/34
f 144/171/3 141/173/3 111/187/3
f 146/189/3 148/192/3 174/190/3
f 148/192/4 152/194/4 175/193/4
f 152/194/1 150/196/1 176/195/1
f 150/196/2 146/244/2 173/197/2
f 151/198/5 149/233/5 145/199/5
f 148/201/6 146/245/6 150/196/6
f 156/202/21 153/229/21 165/203/21
f 155/205/1 156/202/1 168/204/1
f 154/207/22 155/205/22 167/206/22
f 165/209/3 153/228/3 154/207/3
f 160/210/23 157/230/23 172/211/23
f 159/213/1 160/210/1 171/212/1
f 158/215/24 159/213/24 170/214/24
f 172/217/3 157/231/3 158/215/3
f 180/218/3 164/226/3 161/219/3
f 161/219/25 162/222/25 178/221/25
f 162/222/1 163/224/1 179/223/1
f 163/224/26 164/227/26 180/225/26
f 165/209/3 166/208/3 161/219/3
f 166/208/27 167/206/27 162/222/27
f 162/222/1 167/206/1 168/204/1
f 168/204/28 165/203/28 164/227/28
f 172/217/3 169/216/3 154/207/3
f 154/207/29 169/216/29 170/214/29
f 155/205/1 170/214/1 171/212/1
f 171/212/30 172/211/30 153/229/30
f 176/195/31 173/197/31 157/230/31
f 159/213/1 175/193/1 176/195/1
f 158/215/32 174/190/32 175/193/32
f 173/191/3 174/190/3 158/215/3
f 179/223/33 180/225/33 145/232/33
f 151/198/1 178/221/1 179/223/1
f 177/220/34 178/221/34 151/198/34
f 180/218/3 177/220/3 147/234/3
